<svg width="1920" height="562" viewBox="0 0 1920 562" fill="none" xmlns="http://www.w3.org/2000/svg">
<g clip-path="url(#clip0_29_13)">
<rect width="1920" height="562" fill="#1B1B1B"/>
<g filter="url(#filter0_d_29_13)">
<path d="M92.136 410.28C85.5653 410.28 79.72 408.787 74.6 405.8C69.48 402.728 65.4267 398.547 62.44 393.256C59.5387 387.965 58.088 381.949 58.088 375.208C58.088 368.467 59.5813 362.493 62.568 357.288C65.64 351.997 69.8213 347.859 75.112 344.872C80.4027 341.885 86.4187 340.392 93.16 340.392C97.256 340.392 101.011 340.947 104.424 342.056C107.923 343.08 110.952 344.531 113.512 346.408C116.072 348.285 118.12 350.376 119.656 352.68C121.192 354.899 122.045 357.245 122.216 359.72L119.016 359.208V341.8H132.2V409H119.016V391.976L121.832 391.848C121.491 393.981 120.467 396.157 118.76 398.376C117.139 400.509 114.92 402.472 112.104 404.264C109.373 406.056 106.301 407.507 102.888 408.616C99.4747 409.725 95.8907 410.28 92.136 410.28ZM95.464 398.12C100.157 398.12 104.296 397.139 107.88 395.176C111.549 393.213 114.408 390.525 116.456 387.112C118.504 383.613 119.528 379.645 119.528 375.208C119.528 370.941 118.504 367.101 116.456 363.688C114.408 360.275 111.549 357.587 107.88 355.624C104.296 353.576 100.157 352.552 95.464 352.552C90.7707 352.552 86.632 353.576 83.048 355.624C79.464 357.587 76.648 360.275 74.6 363.688C72.552 367.101 71.528 370.941 71.528 375.208C71.528 379.645 72.552 383.613 74.6 387.112C76.648 390.525 79.464 393.213 83.048 395.176C86.632 397.139 90.7707 398.12 95.464 398.12ZM164.384 409V314.28H177.568V409H164.384ZM222.029 389.544L222.285 375.208L260.429 341.8H278.477L222.029 389.544ZM210.893 409V314.28H223.565V409H210.893ZM262.349 409L233.165 376.36L242.253 367.784L279.245 409H262.349ZM332.268 410.28C324.588 410.28 317.761 408.829 311.788 405.928C305.815 402.941 301.121 398.888 297.708 393.768C294.38 388.648 292.716 382.76 292.716 376.104C292.716 370.643 293.697 365.736 295.66 361.384C297.623 357.032 300.311 353.277 303.724 350.12C307.223 346.963 311.319 344.531 316.012 342.824C320.705 341.117 325.74 340.264 331.116 340.264C335.98 340.264 340.503 341.075 344.684 342.696C348.951 344.317 352.663 346.579 355.82 349.48C358.977 352.381 361.409 355.837 363.116 359.848C364.908 363.773 365.761 368.125 365.676 372.904L365.548 379.048H303.468L300.524 368.552H354.156L352.236 370.216V367.144C351.895 364.328 350.7 361.811 348.652 359.592C346.604 357.373 344.044 355.624 340.972 354.344C337.9 353.064 334.615 352.424 331.116 352.424C325.996 352.424 321.516 353.235 317.676 354.856C313.921 356.477 310.977 358.995 308.844 362.408C306.796 365.736 305.772 370.003 305.772 375.208C305.772 379.901 306.967 383.955 309.356 387.368C311.745 390.781 315.073 393.427 319.34 395.304C323.607 397.181 328.513 398.12 334.06 398.12C338.839 398.12 342.977 397.437 346.476 396.072C349.975 394.707 353.303 392.829 356.46 390.44L362.732 400.04C360.513 401.917 357.74 403.667 354.412 405.288C351.084 406.824 347.5 408.061 343.66 409C339.905 409.853 336.108 410.28 332.268 410.28ZM424.893 410.28C417.213 410.28 410.386 408.829 404.413 405.928C398.44 402.941 393.746 398.888 390.333 393.768C387.005 388.648 385.341 382.76 385.341 376.104C385.341 370.643 386.322 365.736 388.285 361.384C390.248 357.032 392.936 353.277 396.349 350.12C399.848 346.963 403.944 344.531 408.637 342.824C413.33 341.117 418.365 340.264 423.741 340.264C428.605 340.264 433.128 341.075 437.309 342.696C441.576 344.317 445.288 346.579 448.445 349.48C451.602 352.381 454.034 355.837 455.741 359.848C457.533 363.773 458.386 368.125 458.301 372.904L458.173 379.048H396.093L393.149 368.552H446.781L444.861 370.216V367.144C444.52 364.328 443.325 361.811 441.277 359.592C439.229 357.373 436.669 355.624 433.597 354.344C430.525 353.064 427.24 352.424 423.741 352.424C418.621 352.424 414.141 353.235 410.301 354.856C406.546 356.477 403.602 358.995 401.469 362.408C399.421 365.736 398.397 370.003 398.397 375.208C398.397 379.901 399.592 383.955 401.981 387.368C404.37 390.781 407.698 393.427 411.965 395.304C416.232 397.181 421.138 398.12 426.685 398.12C431.464 398.12 435.602 397.437 439.101 396.072C442.6 394.707 445.928 392.829 449.085 390.44L455.357 400.04C453.138 401.917 450.365 403.667 447.037 405.288C443.709 406.824 440.125 408.061 436.285 409C432.53 409.853 428.733 410.28 424.893 410.28ZM505.9 409L473.516 341.8H488.236L512.812 394.792L509.868 395.944L535.852 341.8H549.932L516.396 409H505.9ZM600.672 410.28C593.077 410.28 586.592 408.36 581.216 404.52C575.84 400.68 571.744 395.304 568.928 388.392C566.112 381.48 564.704 373.416 564.704 364.2C564.704 354.984 566.112 346.92 568.928 340.008C571.744 333.096 575.84 327.72 581.216 323.88C586.592 320.04 593.077 318.12 600.672 318.12C608.181 318.12 614.581 320.04 619.872 323.88C625.163 327.72 629.216 333.096 632.032 340.008C634.848 346.92 636.256 354.984 636.256 364.2C636.256 373.416 634.848 381.48 632.032 388.392C629.216 395.304 625.163 400.68 619.872 404.52C614.581 408.36 608.181 410.28 600.672 410.28ZM600.672 397.736C607.669 397.736 613.088 394.835 616.928 389.032C620.853 383.144 622.816 374.867 622.816 364.2C622.816 353.533 620.853 345.299 616.928 339.496C613.088 333.608 607.669 330.664 600.672 330.664C593.504 330.664 587.915 333.608 583.904 339.496C579.979 345.299 578.016 353.533 578.016 364.2C578.016 374.867 579.979 383.144 583.904 389.032C587.915 394.835 593.504 397.736 600.672 397.736ZM689.547 410.28C681.952 410.28 675.467 408.36 670.091 404.52C664.715 400.68 660.619 395.304 657.803 388.392C654.987 381.48 653.579 373.416 653.579 364.2C653.579 354.984 654.987 346.92 657.803 340.008C660.619 333.096 664.715 327.72 670.091 323.88C675.467 320.04 681.952 318.12 689.547 318.12C697.056 318.12 703.456 320.04 708.747 323.88C714.038 327.72 718.091 333.096 720.907 340.008C723.723 346.92 725.131 354.984 725.131 364.2C725.131 373.416 723.723 381.48 720.907 388.392C718.091 395.304 714.038 400.68 708.747 404.52C703.456 408.36 697.056 410.28 689.547 410.28ZM689.547 397.736C696.544 397.736 701.963 394.835 705.803 389.032C709.728 383.144 711.691 374.867 711.691 364.2C711.691 353.533 709.728 345.299 705.803 339.496C701.963 333.608 696.544 330.664 689.547 330.664C682.379 330.664 676.79 333.608 672.779 339.496C668.854 345.299 666.891 353.533 666.891 364.2C666.891 374.867 668.854 383.144 672.779 389.032C676.79 394.835 682.379 397.736 689.547 397.736Z" fill="#EFEFEF"/>
</g>
<g filter="url(#filter1_d_29_13)">
<path d="M57.704 515V475.256C57.704 473.848 58.024 472.611 58.664 471.544C59.304 470.435 60.2213 469.56 61.416 468.92C62.6107 468.28 63.9973 467.96 65.576 467.96C66.9413 467.96 68.136 468.195 69.16 468.664C70.184 469.133 71.0587 469.795 71.784 470.648L70.568 473.208C69.7573 472.312 68.904 471.715 68.008 471.416C67.112 471.075 66.2587 470.904 65.448 470.904C64.4667 470.904 63.6347 471.075 62.952 471.416C62.312 471.757 61.8 472.269 61.416 472.952C61.0747 473.592 60.904 474.381 60.904 475.32V515H59.752C59.3253 515 58.9413 515 58.6 515C58.3013 515 58.0027 515 57.704 515ZM51.24 484.664V481.72H69.992V484.664H51.24ZM76.9845 515V481.72H80.0565L80.3765 489.144H79.9285C80.3978 487.736 81.1232 486.413 82.1045 485.176C83.0858 483.939 84.2805 482.936 85.6885 482.168C87.1392 481.4 88.8032 481.016 90.6805 481.016C91.4058 481.016 92.0672 481.08 92.6645 481.208C93.3045 481.293 93.8805 481.4 94.3925 481.528L93.4325 485.24C92.8352 484.984 92.2592 484.813 91.7045 484.728C91.1498 484.643 90.6592 484.6 90.2325 484.6C88.5258 484.6 87.0325 484.899 85.7525 485.496C84.5152 486.093 83.4698 486.925 82.6165 487.992C81.8058 489.016 81.1872 490.189 80.7605 491.512C80.3765 492.835 80.1845 494.221 80.1845 495.672V515H76.9845ZM112.138 515.64C108.81 515.64 105.844 514.893 103.242 513.4C100.682 511.907 98.6548 509.837 97.1615 507.192C95.7108 504.547 94.9855 501.539 94.9855 498.168C94.9855 494.84 95.7108 491.896 97.1615 489.336C98.6548 486.733 100.682 484.707 103.242 483.256C105.844 481.763 108.81 481.016 112.138 481.016C115.466 481.016 118.41 481.763 120.97 483.256C123.572 484.707 125.599 486.733 127.05 489.336C128.5 491.896 129.226 494.84 129.226 498.168C129.226 501.539 128.5 504.547 127.05 507.192C125.599 509.837 123.572 511.907 120.97 513.4C118.41 514.893 115.466 515.64 112.138 515.64ZM112.138 512.44C114.783 512.44 117.13 511.821 119.178 510.584C121.268 509.347 122.89 507.661 124.042 505.528C125.236 503.395 125.833 500.941 125.833 498.168C125.833 495.48 125.236 493.091 124.042 491C122.89 488.867 121.268 487.203 119.178 486.008C117.13 484.813 114.783 484.216 112.138 484.216C109.45 484.216 107.06 484.813 104.97 486.008C102.922 487.203 101.3 488.867 100.106 491C98.9535 493.091 98.3775 495.48 98.3775 498.168C98.3775 500.941 98.9535 503.395 100.106 505.528C101.3 507.661 102.922 509.347 104.97 510.584C107.06 511.821 109.45 512.44 112.138 512.44ZM135.922 515V481.72H138.994L139.314 488.76H138.93C139.399 487.352 140.253 486.072 141.49 484.92C142.727 483.725 144.199 482.787 145.906 482.104C147.655 481.379 149.49 481.016 151.41 481.016C153.757 481.016 155.741 481.507 157.362 482.488C159.026 483.469 160.263 484.984 161.074 487.032C161.927 489.08 162.354 491.683 162.354 494.84V515H159.154V494.968C159.154 492.493 158.813 490.467 158.13 488.888C157.49 487.267 156.53 486.072 155.25 485.304C153.97 484.493 152.37 484.088 150.45 484.088C148.786 484.088 147.271 484.387 145.906 484.984C144.541 485.539 143.346 486.307 142.322 487.288C141.298 488.269 140.509 489.4 139.954 490.68C139.399 491.917 139.122 493.24 139.122 494.648V515H137.522C137.479 515 137.33 515 137.074 515C136.861 515 136.477 515 135.922 515ZM176.666 515V472.824H179.866V515H176.666ZM168.666 484.664V481.72H188.826V484.664H168.666ZM208.185 515.64C204.985 515.64 202.126 514.915 199.609 513.464C197.134 512.013 195.193 509.987 193.785 507.384C192.377 504.781 191.673 501.752 191.673 498.296C191.673 495.779 192.057 493.475 192.825 491.384C193.636 489.293 194.745 487.48 196.153 485.944C197.561 484.365 199.246 483.149 201.209 482.296C203.214 481.443 205.39 481.016 207.737 481.016C210.041 481.016 212.11 481.4 213.945 482.168C215.822 482.936 217.401 484.045 218.681 485.496C219.961 486.904 220.921 488.589 221.561 490.552C222.201 492.472 222.478 494.605 222.393 496.952L222.329 498.68H194.041V495.736H220.601L219.193 496.888V495.352C219.193 493.645 218.766 491.939 217.913 490.232C217.102 488.525 215.844 487.096 214.137 485.944C212.43 484.792 210.276 484.216 207.673 484.216C205.241 484.216 203.065 484.749 201.145 485.816C199.268 486.883 197.774 488.44 196.665 490.488C195.598 492.536 195.065 495.075 195.065 498.104C195.065 501.005 195.598 503.544 196.665 505.72C197.732 507.853 199.268 509.517 201.273 510.712C203.321 511.864 205.817 512.44 208.761 512.44C210.34 512.44 211.961 512.184 213.625 511.672C215.289 511.16 217.166 510.051 219.257 508.344L220.921 510.712C219.982 511.608 218.873 512.44 217.593 513.208C216.313 513.933 214.884 514.531 213.305 515C211.726 515.427 210.02 515.64 208.185 515.64ZM228.86 515V481.72H231.932L232.252 488.76H231.868C232.337 487.352 233.19 486.072 234.428 484.92C235.665 483.725 237.137 482.787 238.844 482.104C240.593 481.379 242.428 481.016 244.348 481.016C246.694 481.016 248.678 481.507 250.3 482.488C251.964 483.469 253.201 484.984 254.012 487.032C254.865 489.08 255.292 491.683 255.292 494.84V515H252.092V494.968C252.092 492.493 251.75 490.467 251.068 488.888C250.428 487.267 249.468 486.072 248.188 485.304C246.908 484.493 245.308 484.088 243.388 484.088C241.724 484.088 240.209 484.387 238.844 484.984C237.478 485.539 236.284 486.307 235.26 487.288C234.236 488.269 233.446 489.4 232.892 490.68C232.337 491.917 232.06 493.24 232.06 494.648V515H230.46C230.417 515 230.268 515 230.012 515C229.798 515 229.414 515 228.86 515ZM277.795 515.64C274.766 515.64 272.056 514.893 269.667 513.4C267.278 511.907 265.379 509.859 263.971 507.256C262.606 504.653 261.923 501.688 261.923 498.36C261.923 494.989 262.627 492.003 264.035 489.4C265.486 486.797 267.406 484.749 269.795 483.256C272.184 481.763 274.851 481.016 277.795 481.016C279.502 481.016 281.123 481.272 282.659 481.784C284.195 482.296 285.582 483.021 286.819 483.96C288.056 484.856 289.123 485.923 290.019 487.16C290.915 488.397 291.555 489.741 291.939 491.192L290.851 490.104V467.64H294.051V515H290.979L290.723 506.36L291.939 505.464C291.555 506.872 290.915 508.195 290.019 509.432C289.123 510.669 288.056 511.757 286.819 512.696C285.582 513.635 284.195 514.36 282.659 514.872C281.123 515.384 279.502 515.64 277.795 515.64ZM278.243 512.44C280.675 512.44 282.851 511.843 284.771 510.648C286.734 509.411 288.27 507.747 289.379 505.656C290.531 503.523 291.107 501.069 291.107 498.296C291.107 495.565 290.552 493.155 289.443 491.064C288.334 488.931 286.798 487.267 284.835 486.072C282.915 484.835 280.718 484.216 278.243 484.216C275.726 484.216 273.486 484.835 271.523 486.072C269.603 487.267 268.088 488.931 266.979 491.064C265.87 493.155 265.315 495.565 265.315 498.296C265.315 500.984 265.848 503.395 266.915 505.528C268.024 507.661 269.539 509.347 271.459 510.584C273.422 511.821 275.683 512.44 278.243 512.44ZM334.733 515.64C331.703 515.64 328.994 514.893 326.605 513.4C324.215 511.907 322.317 509.859 320.909 507.256C319.543 504.653 318.861 501.688 318.861 498.36C318.861 494.989 319.565 492.003 320.973 489.4C322.423 486.797 324.343 484.749 326.733 483.256C329.122 481.763 331.789 481.016 334.733 481.016C336.439 481.016 338.061 481.272 339.597 481.784C341.133 482.296 342.519 483.021 343.757 483.96C344.994 484.856 346.061 485.923 346.957 487.16C347.853 488.397 348.493 489.741 348.877 491.192L347.789 490.104V467.64H350.989V515H347.917L347.661 506.36L348.877 505.464C348.493 506.872 347.853 508.195 346.957 509.432C346.061 510.669 344.994 511.757 343.757 512.696C342.519 513.635 341.133 514.36 339.597 514.872C338.061 515.384 336.439 515.64 334.733 515.64ZM335.181 512.44C337.613 512.44 339.789 511.843 341.709 510.648C343.671 509.411 345.207 507.747 346.317 505.656C347.469 503.523 348.045 501.069 348.045 498.296C348.045 495.565 347.49 493.155 346.381 491.064C345.271 488.931 343.735 487.267 341.773 486.072C339.853 484.835 337.655 484.216 335.181 484.216C332.663 484.216 330.423 484.835 328.461 486.072C326.541 487.267 325.026 488.931 323.917 491.064C322.807 493.155 322.253 495.565 322.253 498.296C322.253 500.984 322.786 503.395 323.853 505.528C324.962 507.661 326.477 509.347 328.397 510.584C330.359 511.821 332.621 512.44 335.181 512.44ZM374.373 515.64C371.173 515.64 368.314 514.915 365.797 513.464C363.322 512.013 361.381 509.987 359.973 507.384C358.565 504.781 357.861 501.752 357.861 498.296C357.861 495.779 358.245 493.475 359.013 491.384C359.823 489.293 360.933 487.48 362.341 485.944C363.749 484.365 365.434 483.149 367.397 482.296C369.402 481.443 371.578 481.016 373.925 481.016C376.229 481.016 378.298 481.4 380.133 482.168C382.01 482.936 383.589 484.045 384.869 485.496C386.149 486.904 387.109 488.589 387.749 490.552C388.389 492.472 388.666 494.605 388.581 496.952L388.517 498.68H360.229V495.736H386.789L385.381 496.888V495.352C385.381 493.645 384.954 491.939 384.101 490.232C383.29 488.525 382.031 487.096 380.325 485.944C378.618 484.792 376.463 484.216 373.861 484.216C371.429 484.216 369.253 484.749 367.333 485.816C365.455 486.883 363.962 488.44 362.853 490.488C361.786 492.536 361.253 495.075 361.253 498.104C361.253 501.005 361.786 503.544 362.853 505.72C363.919 507.853 365.455 509.517 367.461 510.712C369.509 511.864 372.005 512.44 374.949 512.44C376.527 512.44 378.149 512.184 379.813 511.672C381.477 511.16 383.354 510.051 385.445 508.344L387.109 510.712C386.17 511.608 385.061 512.44 383.781 513.208C382.501 513.933 381.071 514.531 379.493 515C377.914 515.427 376.207 515.64 374.373 515.64ZM404.278 515L390.262 481.72H393.974L405.878 511.096L404.534 511.992L417.974 481.72H421.558L406.454 515H404.278ZM439.685 515.64C436.485 515.64 433.626 514.915 431.109 513.464C428.634 512.013 426.693 509.987 425.285 507.384C423.877 504.781 423.173 501.752 423.173 498.296C423.173 495.779 423.557 493.475 424.325 491.384C425.136 489.293 426.245 487.48 427.653 485.944C429.061 484.365 430.746 483.149 432.709 482.296C434.714 481.443 436.89 481.016 439.237 481.016C441.541 481.016 443.61 481.4 445.445 482.168C447.322 482.936 448.901 484.045 450.181 485.496C451.461 486.904 452.421 488.589 453.061 490.552C453.701 492.472 453.978 494.605 453.893 496.952L453.829 498.68H425.541V495.736H452.101L450.693 496.888V495.352C450.693 493.645 450.266 491.939 449.413 490.232C448.602 488.525 447.344 487.096 445.637 485.944C443.93 484.792 441.776 484.216 439.173 484.216C436.741 484.216 434.565 484.749 432.645 485.816C430.768 486.883 429.274 488.44 428.165 490.488C427.098 492.536 426.565 495.075 426.565 498.104C426.565 501.005 427.098 503.544 428.165 505.72C429.232 507.853 430.768 509.517 432.773 510.712C434.821 511.864 437.317 512.44 440.261 512.44C441.84 512.44 443.461 512.184 445.125 511.672C446.789 511.16 448.666 510.051 450.757 508.344L452.421 510.712C451.482 511.608 450.373 512.44 449.093 513.208C447.813 513.933 446.384 514.531 444.805 515C443.226 515.427 441.52 515.64 439.685 515.64ZM460.488 515V467.64H463.688V515H460.488ZM487.075 515.64C483.747 515.64 480.782 514.893 478.179 513.4C475.619 511.907 473.592 509.837 472.099 507.192C470.648 504.547 469.923 501.539 469.923 498.168C469.923 494.84 470.648 491.896 472.099 489.336C473.592 486.733 475.619 484.707 478.179 483.256C480.782 481.763 483.747 481.016 487.075 481.016C490.403 481.016 493.347 481.763 495.907 483.256C498.51 484.707 500.536 486.733 501.987 489.336C503.438 491.896 504.163 494.84 504.163 498.168C504.163 501.539 503.438 504.547 501.987 507.192C500.536 509.837 498.51 511.907 495.907 513.4C493.347 514.893 490.403 515.64 487.075 515.64ZM487.075 512.44C489.72 512.44 492.067 511.821 494.115 510.584C496.206 509.347 497.827 507.661 498.979 505.528C500.174 503.395 500.771 500.941 500.771 498.168C500.771 495.48 500.174 493.091 498.979 491C497.827 488.867 496.206 487.203 494.115 486.008C492.067 484.813 489.72 484.216 487.075 484.216C484.387 484.216 481.998 484.813 479.907 486.008C477.859 487.203 476.238 488.867 475.043 491C473.891 493.091 473.315 495.48 473.315 498.168C473.315 500.941 473.891 503.395 475.043 505.528C476.238 507.661 477.859 509.347 479.907 510.584C481.998 511.821 484.387 512.44 487.075 512.44ZM510.86 529.08V481.72H513.932L514.252 490.36L513.42 491.128C513.974 489.208 514.913 487.501 516.236 486.008C517.601 484.472 519.244 483.256 521.164 482.36C523.084 481.464 525.174 481.016 527.436 481.016C530.38 481.016 533.046 481.763 535.436 483.256C537.868 484.749 539.788 486.797 541.196 489.4C542.646 492.003 543.372 494.989 543.372 498.36C543.372 501.688 542.668 504.653 541.26 507.256C539.894 509.859 537.996 511.907 535.564 513.4C533.174 514.893 530.465 515.64 527.436 515.64C525.174 515.64 523.084 515.192 521.164 514.296C519.244 513.4 517.601 512.205 516.236 510.712C514.913 509.176 513.974 507.448 513.42 505.528L514.06 506.36V529.08H510.86ZM526.924 512.44C529.484 512.44 531.745 511.843 533.708 510.648C535.67 509.411 537.206 507.725 538.316 505.592C539.425 503.459 539.979 501.048 539.979 498.36C539.979 495.629 539.404 493.197 538.252 491.064C537.142 488.931 535.606 487.267 533.644 486.072C531.681 484.835 529.441 484.216 526.924 484.216C524.406 484.216 522.145 484.835 520.14 486.072C518.177 487.267 516.62 488.931 515.468 491.064C514.358 493.155 513.804 495.565 513.804 498.296C513.804 501.069 514.38 503.523 515.532 505.656C516.684 507.747 518.241 509.411 520.204 510.648C522.166 511.843 524.406 512.44 526.924 512.44ZM550.11 515V481.72H553.182L553.502 489.784L552.734 489.656C553.118 488.291 553.715 487.075 554.526 486.008C555.379 484.941 556.36 484.045 557.47 483.32C558.622 482.552 559.88 481.976 561.246 481.592C562.611 481.208 564.062 481.016 565.598 481.016C567.219 481.016 568.691 481.293 570.014 481.848C571.379 482.403 572.552 483.405 573.534 484.856C574.515 486.307 575.283 488.355 575.838 491L574.558 490.104L575.006 489.016C575.432 487.992 576.051 487.011 576.862 486.072C577.672 485.091 578.632 484.237 579.742 483.512C580.851 482.744 582.088 482.147 583.454 481.72C584.862 481.251 586.355 481.016 587.934 481.016C590.152 481.016 592.051 481.507 593.63 482.488C595.208 483.469 596.403 484.984 597.214 487.032C598.067 489.08 598.494 491.683 598.494 494.84V515H595.294V494.968C595.294 492.493 594.974 490.467 594.334 488.888C593.736 487.267 592.819 486.072 591.582 485.304C590.387 484.493 588.894 484.088 587.102 484.088C585.438 484.088 583.923 484.387 582.558 484.984C581.192 485.539 580.019 486.307 579.038 487.288C578.056 488.269 577.288 489.4 576.734 490.68C576.179 491.917 575.902 493.24 575.902 494.648V515H572.702V494.968C572.702 492.493 572.382 490.467 571.742 488.888C571.144 487.267 570.227 486.072 568.99 485.304C567.752 484.493 566.238 484.088 564.446 484.088C562.824 484.088 561.331 484.387 559.966 484.984C558.6 485.539 557.427 486.307 556.446 487.288C555.464 488.269 554.696 489.4 554.142 490.68C553.587 491.917 553.31 493.24 553.31 494.648V515H550.11ZM621.685 515.64C618.485 515.64 615.626 514.915 613.109 513.464C610.634 512.013 608.693 509.987 607.285 507.384C605.877 504.781 605.173 501.752 605.173 498.296C605.173 495.779 605.557 493.475 606.325 491.384C607.136 489.293 608.245 487.48 609.653 485.944C611.061 484.365 612.746 483.149 614.709 482.296C616.714 481.443 618.89 481.016 621.237 481.016C623.541 481.016 625.61 481.4 627.445 482.168C629.322 482.936 630.901 484.045 632.181 485.496C633.461 486.904 634.421 488.589 635.061 490.552C635.701 492.472 635.978 494.605 635.893 496.952L635.829 498.68H607.541V495.736H634.101L632.693 496.888V495.352C632.693 493.645 632.266 491.939 631.413 490.232C630.602 488.525 629.344 487.096 627.637 485.944C625.93 484.792 623.776 484.216 621.173 484.216C618.741 484.216 616.565 484.749 614.645 485.816C612.768 486.883 611.274 488.44 610.165 490.488C609.098 492.536 608.565 495.075 608.565 498.104C608.565 501.005 609.098 503.544 610.165 505.72C611.232 507.853 612.768 509.517 614.773 510.712C616.821 511.864 619.317 512.44 622.261 512.44C623.84 512.44 625.461 512.184 627.125 511.672C628.789 511.16 630.666 510.051 632.757 508.344L634.421 510.712C633.482 511.608 632.373 512.44 631.093 513.208C629.813 513.933 628.384 514.531 626.805 515C625.226 515.427 623.52 515.64 621.685 515.64ZM642.36 515V481.72H645.432L645.752 488.76H645.368C645.837 487.352 646.69 486.072 647.928 484.92C649.165 483.725 650.637 482.787 652.344 482.104C654.093 481.379 655.928 481.016 657.848 481.016C660.194 481.016 662.178 481.507 663.8 482.488C665.464 483.469 666.701 484.984 667.512 487.032C668.365 489.08 668.792 491.683 668.792 494.84V515H665.592V494.968C665.592 492.493 665.25 490.467 664.568 488.888C663.928 487.267 662.968 486.072 661.688 485.304C660.408 484.493 658.808 484.088 656.888 484.088C655.224 484.088 653.709 484.387 652.344 484.984C650.978 485.539 649.784 486.307 648.76 487.288C647.736 488.269 646.946 489.4 646.392 490.68C645.837 491.917 645.56 493.24 645.56 494.648V515H643.96C643.917 515 643.768 515 643.512 515C643.298 515 642.914 515 642.36 515ZM683.103 515V472.824H686.303V515H683.103ZM675.103 484.664V481.72H695.263V484.664H675.103ZM751.305 515L747.081 510.584L745.865 509.112L733.193 495.288C731.614 493.496 730.291 491.96 729.225 490.68C728.201 489.4 727.369 488.269 726.729 487.288C726.131 486.307 725.705 485.368 725.449 484.472C725.193 483.533 725.065 482.531 725.065 481.464C725.065 479.203 725.619 477.219 726.729 475.512C727.881 473.763 729.438 472.397 731.401 471.416C733.406 470.392 735.667 469.88 738.185 469.88C740.233 469.88 742.089 470.221 743.753 470.904C745.417 471.544 746.846 472.483 748.041 473.72C749.235 474.915 750.11 476.323 750.665 477.944L747.977 479.608C747.038 477.219 745.758 475.533 744.137 474.552C742.558 473.571 740.595 473.08 738.249 473.08C736.243 473.08 734.494 473.4 733.001 474.04C731.55 474.637 730.419 475.555 729.609 476.792C728.841 477.987 728.457 479.48 728.457 481.272C728.457 482.339 728.691 483.405 729.161 484.472C729.673 485.539 730.313 486.584 731.081 487.608C731.849 488.632 732.659 489.613 733.513 490.552C734.366 491.448 735.134 492.28 735.817 493.048L748.169 506.744L749.513 508.216L755.913 515H751.305ZM734.537 515.64C731.166 515.64 728.201 515.043 725.641 513.848C723.081 512.611 721.075 510.904 719.625 508.728C718.217 506.509 717.513 503.949 717.513 501.048C717.513 497.933 718.43 495.139 720.265 492.664C722.142 490.189 724.873 488.291 728.457 486.968L730.569 489.464C727.497 490.317 725.107 491.747 723.401 493.752C721.737 495.757 720.905 498.104 720.905 500.792C720.905 503.011 721.523 504.995 722.76 506.744C724.041 508.493 725.747 509.88 727.881 510.904C730.014 511.928 732.382 512.44 734.985 512.44C737.289 512.44 739.401 512.013 741.321 511.16C743.283 510.264 744.99 509.005 746.441 507.384C747.891 505.763 749.086 503.821 750.025 501.56C750.963 499.299 751.625 496.76 752.009 493.944H755.657C755.315 496.547 754.718 498.957 753.865 501.176C753.054 503.395 752.03 505.4 750.793 507.192C749.555 508.984 748.126 510.52 746.505 511.8C744.883 513.037 743.07 513.997 741.065 514.68C739.059 515.32 736.883 515.64 734.537 515.64ZM789.226 515L777.45 481.72H781.161L790.954 510.776L789.226 510.648L799.85 486.712H801.77L812.394 510.648L810.346 510.776L820.458 481.72H823.978L812.201 515H810.986L799.658 488.952H801.962L790.634 515H789.226ZM842.123 515.64C838.923 515.64 836.064 514.915 833.547 513.464C831.072 512.013 829.131 509.987 827.723 507.384C826.315 504.781 825.611 501.752 825.611 498.296C825.611 495.779 825.995 493.475 826.763 491.384C827.573 489.293 828.683 487.48 830.091 485.944C831.499 484.365 833.184 483.149 835.147 482.296C837.152 481.443 839.328 481.016 841.675 481.016C843.979 481.016 846.048 481.4 847.883 482.168C849.76 482.936 851.339 484.045 852.619 485.496C853.899 486.904 854.859 488.589 855.499 490.552C856.139 492.472 856.416 494.605 856.331 496.952L856.267 498.68H827.979V495.736H854.539L853.131 496.888V495.352C853.131 493.645 852.704 491.939 851.851 490.232C851.04 488.525 849.781 487.096 848.075 485.944C846.368 484.792 844.213 484.216 841.611 484.216C839.179 484.216 837.003 484.749 835.083 485.816C833.205 486.883 831.712 488.44 830.603 490.488C829.536 492.536 829.003 495.075 829.003 498.104C829.003 501.005 829.536 503.544 830.603 505.72C831.669 507.853 833.205 509.517 835.211 510.712C837.259 511.864 839.755 512.44 842.699 512.44C844.277 512.44 845.899 512.184 847.563 511.672C849.227 511.16 851.104 510.051 853.195 508.344L854.859 510.712C853.92 511.608 852.811 512.44 851.531 513.208C850.251 513.933 848.821 514.531 847.243 515C845.664 515.427 843.957 515.64 842.123 515.64ZM879.117 515.64C877.41 515.64 875.789 515.384 874.253 514.872C872.76 514.36 871.373 513.656 870.093 512.76C868.856 511.821 867.789 510.733 866.893 509.496C866.04 508.259 865.421 506.936 865.037 505.528L866.189 506.552L865.869 515H862.797V467.64H865.997V490.04L865.037 491.128C865.421 489.72 866.04 488.397 866.893 487.16C867.789 485.923 868.856 484.856 870.093 483.96C871.373 483.021 872.76 482.296 874.253 481.784C875.789 481.272 877.41 481.016 879.117 481.016C882.061 481.016 884.728 481.763 887.117 483.256C889.506 484.749 891.405 486.797 892.813 489.4C894.264 492.003 894.989 494.989 894.989 498.36C894.989 501.688 894.285 504.653 892.877 507.256C891.512 509.859 889.634 511.907 887.245 513.4C884.856 514.893 882.146 515.64 879.117 515.64ZM878.669 512.44C881.229 512.44 883.469 511.821 885.389 510.584C887.352 509.347 888.866 507.661 889.933 505.528C891.042 503.395 891.597 500.984 891.597 498.296C891.597 495.565 891.042 493.155 889.933 491.064C888.824 488.931 887.288 487.267 885.325 486.072C883.405 484.835 881.186 484.216 878.669 484.216C876.152 484.216 873.912 484.835 871.949 486.072C870.029 487.267 868.514 488.931 867.405 491.064C866.296 493.155 865.741 495.565 865.741 498.296C865.741 501.069 866.296 503.523 867.405 505.656C868.557 507.747 870.093 509.411 872.013 510.648C873.976 511.843 876.194 512.44 878.669 512.44ZM932.92 515.64C929.891 515.64 927.181 514.893 924.792 513.4C922.403 511.907 920.504 509.859 919.096 507.256C917.731 504.653 917.048 501.688 917.048 498.36C917.048 494.989 917.752 492.003 919.16 489.4C920.611 486.797 922.531 484.749 924.92 483.256C927.309 481.763 929.976 481.016 932.92 481.016C934.627 481.016 936.248 481.272 937.784 481.784C939.32 482.296 940.707 483.021 941.944 483.96C943.181 484.856 944.248 485.923 945.144 487.16C946.04 488.397 946.68 489.741 947.064 491.192L945.976 490.104V467.64H949.176V515H946.104L945.848 506.36L947.064 505.464C946.68 506.872 946.04 508.195 945.144 509.432C944.248 510.669 943.181 511.757 941.944 512.696C940.707 513.635 939.32 514.36 937.784 514.872C936.248 515.384 934.627 515.64 932.92 515.64ZM933.368 512.44C935.8 512.44 937.976 511.843 939.896 510.648C941.859 509.411 943.395 507.747 944.504 505.656C945.656 503.523 946.232 501.069 946.232 498.296C946.232 495.565 945.677 493.155 944.568 491.064C943.459 488.931 941.923 487.267 939.96 486.072C938.04 484.835 935.843 484.216 933.368 484.216C930.851 484.216 928.611 484.835 926.648 486.072C924.728 487.267 923.213 488.931 922.104 491.064C920.995 493.155 920.44 495.565 920.44 498.296C920.44 500.984 920.973 503.395 922.04 505.528C923.149 507.661 924.664 509.347 926.584 510.584C928.547 511.821 930.808 512.44 933.368 512.44ZM972.56 515.64C969.36 515.64 966.501 514.915 963.984 513.464C961.509 512.013 959.568 509.987 958.16 507.384C956.752 504.781 956.048 501.752 956.048 498.296C956.048 495.779 956.432 493.475 957.2 491.384C958.011 489.293 959.12 487.48 960.528 485.944C961.936 484.365 963.621 483.149 965.584 482.296C967.589 481.443 969.765 481.016 972.112 481.016C974.416 481.016 976.485 481.4 978.32 482.168C980.197 482.936 981.776 484.045 983.056 485.496C984.336 486.904 985.296 488.589 985.936 490.552C986.576 492.472 986.853 494.605 986.768 496.952L986.704 498.68H958.416V495.736H984.976L983.568 496.888V495.352C983.568 493.645 983.141 491.939 982.288 490.232C981.477 488.525 980.219 487.096 978.512 485.944C976.805 484.792 974.651 484.216 972.048 484.216C969.616 484.216 967.44 484.749 965.52 485.816C963.643 486.883 962.149 488.44 961.04 490.488C959.973 492.536 959.44 495.075 959.44 498.104C959.44 501.005 959.973 503.544 961.04 505.72C962.107 507.853 963.643 509.517 965.648 510.712C967.696 511.864 970.192 512.44 973.136 512.44C974.715 512.44 976.336 512.184 978 511.672C979.664 511.16 981.541 510.051 983.632 508.344L985.296 510.712C984.357 511.608 983.248 512.44 981.968 513.208C980.688 513.933 979.259 514.531 977.68 515C976.101 515.427 974.395 515.64 972.56 515.64ZM1004.05 515.64C1001.15 515.64 998.568 515.085 996.307 513.976C994.045 512.824 992.317 511.437 991.123 509.816L993.555 507.704C994.707 509.24 996.2 510.435 998.035 511.288C999.869 512.099 1001.94 512.504 1004.24 512.504C1005.52 512.504 1006.7 512.376 1007.76 512.12C1008.83 511.821 1009.73 511.416 1010.45 510.904C1011.22 510.392 1011.82 509.773 1012.24 509.048C1012.67 508.28 1012.88 507.427 1012.88 506.488C1012.88 504.824 1012.09 503.416 1010.51 502.264C1009.79 501.752 1008.87 501.283 1007.76 500.856C1006.65 500.429 1005.35 500.003 1003.86 499.576C1001.6 498.893 999.677 498.253 998.099 497.656C996.52 497.059 995.261 496.312 994.323 495.416C993.64 494.691 993.128 493.923 992.786 493.112C992.445 492.259 992.275 491.341 992.275 490.36C992.275 488.995 992.552 487.757 993.107 486.648C993.661 485.496 994.451 484.493 995.475 483.64C996.499 482.787 997.693 482.147 999.059 481.72C1000.42 481.251 1001.94 481.016 1003.6 481.016C1005.18 481.016 1006.74 481.251 1008.27 481.72C1009.81 482.147 1011.24 482.765 1012.56 483.576C1013.89 484.387 1015.04 485.325 1016.02 486.392L1013.84 488.76C1012.99 487.821 1012.05 486.989 1011.03 486.264C1010.05 485.539 1008.96 484.984 1007.76 484.6C1006.57 484.173 1005.25 483.96 1003.79 483.96C1002.64 483.96 1001.55 484.109 1000.53 484.408C999.549 484.707 998.696 485.155 997.97 485.752C997.245 486.307 996.669 486.968 996.243 487.736C995.859 488.461 995.667 489.272 995.667 490.168C995.667 490.851 995.795 491.469 996.051 492.024C996.307 492.536 996.712 493.027 997.267 493.496C997.992 494.093 998.952 494.605 1000.15 495.032C1001.38 495.459 1002.9 495.928 1004.69 496.44C1006.31 496.867 1007.74 497.293 1008.98 497.72C1010.22 498.147 1011.28 498.659 1012.18 499.256C1013.54 500.109 1014.55 501.112 1015.19 502.264C1015.87 503.416 1016.21 504.739 1016.21 506.232C1016.21 508.067 1015.7 509.688 1014.67 511.096C1013.65 512.504 1012.22 513.613 1010.39 514.424C1008.55 515.235 1006.44 515.64 1004.05 515.64ZM1025.33 515V481.72H1028.53V515H1025.33ZM1026.93 474.744C1025.99 474.744 1025.27 474.488 1024.76 473.976C1024.24 473.464 1023.99 472.76 1023.99 471.864C1023.99 471.011 1024.24 470.328 1024.76 469.816C1025.27 469.261 1025.99 468.984 1026.93 468.984C1027.87 468.984 1028.6 469.24 1029.11 469.752C1029.62 470.264 1029.88 470.968 1029.88 471.864C1029.88 472.717 1029.62 473.421 1029.11 473.976C1028.6 474.488 1027.87 474.744 1026.93 474.744ZM1053.18 529.72C1050.62 529.72 1048.32 529.315 1046.27 528.504C1044.22 527.736 1042.45 526.797 1040.96 525.688L1042.43 522.68C1043.28 523.405 1044.27 524.045 1045.38 524.6C1046.48 525.197 1047.7 525.667 1049.02 526.008C1050.39 526.349 1051.84 526.52 1053.38 526.52C1055.94 526.52 1058.15 525.987 1060.03 524.92C1061.91 523.896 1063.34 522.339 1064.32 520.248C1065.34 518.2 1065.86 515.64 1065.86 512.568V506.296L1066.75 505.464C1066.2 507.384 1065.24 509.112 1063.87 510.648C1062.51 512.184 1060.84 513.4 1058.88 514.296C1056.96 515.192 1054.87 515.64 1052.61 515.64C1049.58 515.64 1046.87 514.893 1044.48 513.4C1042.09 511.907 1040.19 509.859 1038.78 507.256C1037.42 504.653 1036.74 501.688 1036.74 498.36C1036.74 494.989 1037.44 492.003 1038.85 489.4C1040.3 486.797 1042.22 484.749 1044.61 483.256C1047 481.763 1049.66 481.016 1052.61 481.016C1053.97 481.016 1055.27 481.187 1056.51 481.528C1057.79 481.869 1058.96 482.339 1060.03 482.936C1061.14 483.533 1062.14 484.259 1063.04 485.112C1063.94 485.965 1064.68 486.904 1065.28 487.928C1065.92 488.952 1066.41 490.04 1066.75 491.192L1065.54 490.36L1065.86 481.72H1069.06V512.952C1069.06 515.64 1068.67 518.008 1067.9 520.056C1067.14 522.147 1066.03 523.896 1064.58 525.304C1063.17 526.755 1061.48 527.843 1059.52 528.568C1057.6 529.336 1055.49 529.72 1053.18 529.72ZM1053.06 512.44C1055.49 512.44 1057.66 511.843 1059.58 510.648C1061.55 509.411 1063.08 507.747 1064.19 505.656C1065.34 503.523 1065.92 501.069 1065.92 498.296C1065.92 495.565 1065.36 493.155 1064.26 491.064C1063.15 488.931 1061.61 487.267 1059.65 486.072C1057.73 484.835 1055.53 484.216 1053.06 484.216C1050.54 484.216 1048.3 484.835 1046.34 486.072C1044.42 487.267 1042.9 488.931 1041.79 491.064C1040.68 493.155 1040.13 495.565 1040.13 498.296C1040.13 500.984 1040.66 503.395 1041.73 505.528C1042.84 507.661 1044.35 509.347 1046.27 510.584C1048.23 511.821 1050.5 512.44 1053.06 512.44ZM1078.42 515V481.72H1081.49L1081.81 488.76H1081.43C1081.9 487.352 1082.75 486.072 1083.99 484.92C1085.23 483.725 1086.7 482.787 1088.41 482.104C1090.16 481.379 1091.99 481.016 1093.91 481.016C1096.26 481.016 1098.24 481.507 1099.86 482.488C1101.53 483.469 1102.76 484.984 1103.57 487.032C1104.43 489.08 1104.85 491.683 1104.85 494.84V515H1101.65V494.968C1101.65 492.493 1101.31 490.467 1100.63 488.888C1099.99 487.267 1099.03 486.072 1097.75 485.304C1096.47 484.493 1094.87 484.088 1092.95 484.088C1091.29 484.088 1089.77 484.387 1088.41 484.984C1087.04 485.539 1085.85 486.307 1084.82 487.288C1083.8 488.269 1083.01 489.4 1082.45 490.68C1081.9 491.917 1081.62 493.24 1081.62 494.648V515H1080.02C1079.98 515 1079.83 515 1079.57 515C1079.36 515 1078.98 515 1078.42 515Z" fill="#EFEFEF"/>
</g>
</g>
<defs>
<filter id="filter0_d_29_13" x="38.088" y="294.28" width="707.043" height="136" filterUnits="userSpaceOnUse" color-interpolation-filters="sRGB">
<feFlood flood-opacity="0" result="BackgroundImageFix"/>
<feColorMatrix in="SourceAlpha" type="matrix" values="0 0 0 0 0 0 0 0 0 0 0 0 0 0 0 0 0 0 127 0" result="hardAlpha"/>
<feOffset/>
<feGaussianBlur stdDeviation="10"/>
<feComposite in2="hardAlpha" operator="out"/>
<feColorMatrix type="matrix" values="0 0 0 0 0 0 0 0 0 0 0 0 0 0 0 0 0 0 0.5 0"/>
<feBlend mode="normal" in2="BackgroundImageFix" result="effect1_dropShadow_29_13"/>
<feBlend mode="normal" in="SourceGraphic" in2="effect1_dropShadow_29_13" result="shape"/>
</filter>
<filter id="filter1_d_29_13" x="31.24" y="447.64" width="1093.61" height="102.08" filterUnits="userSpaceOnUse" color-interpolation-filters="sRGB">
<feFlood flood-opacity="0" result="BackgroundImageFix"/>
<feColorMatrix in="SourceAlpha" type="matrix" values="0 0 0 0 0 0 0 0 0 0 0 0 0 0 0 0 0 0 127 0" result="hardAlpha"/>
<feOffset/>
<feGaussianBlur stdDeviation="10"/>
<feComposite in2="hardAlpha" operator="out"/>
<feColorMatrix type="matrix" values="0 0 0 0 0 0 0 0 0 0 0 0 0 0 0 0 0 0 0.5 0"/>
<feBlend mode="normal" in2="BackgroundImageFix" result="effect1_dropShadow_29_13"/>
<feBlend mode="normal" in="SourceGraphic" in2="effect1_dropShadow_29_13" result="shape"/>
</filter>
<clipPath id="clip0_29_13">
<rect width="1920" height="562" fill="white"/>
</clipPath>
</defs>
</svg>
