<svg width="1920" height="562" viewBox="0 0 1920 562" fill="none" xmlns="http://www.w3.org/2000/svg">
<g clip-path="url(#clip0_29_13)">
<rect width="1920" height="562" fill="#1B1B1B"/>
<g filter="url(#filter0_d_29_13)">
<path d="M935.55 395.5C927.85 395.5 921 393.75 915 390.25C909 386.65 904.25 381.75 900.75 375.55C897.35 369.35 895.65 362.3 895.65 354.4C895.65 346.5 897.4 339.5 900.9 333.4C904.5 327.2 909.4 322.35 915.6 318.85C921.8 315.35 928.85 313.6 936.75 313.6C941.55 313.6 945.95 314.25 949.95 315.55C954.05 316.75 957.6 318.45 960.6 320.65C963.6 322.85 966 325.3 967.8 328C969.6 330.6 970.6 333.35 970.8 336.25L967.05 335.65V315.25H982.5V394H967.05V374.05L970.35 373.9C969.95 376.4 968.75 378.95 966.75 381.55C964.85 384.05 962.25 386.35 958.95 388.45C955.75 390.55 952.15 392.25 948.15 393.55C944.15 394.85 939.95 395.5 935.55 395.5ZM939.45 381.25C944.95 381.25 949.8 380.1 954 377.8C958.3 375.5 961.65 372.35 964.05 368.35C966.45 364.25 967.65 359.6 967.65 354.4C967.65 349.4 966.45 344.9 964.05 340.9C961.65 336.9 958.3 333.75 954 331.45C949.8 329.05 944.95 327.85 939.45 327.85C933.95 327.85 929.1 329.05 924.9 331.45C920.7 333.75 917.4 336.9 915 340.9C912.6 344.9 911.4 349.4 911.4 354.4C911.4 359.6 912.6 364.25 915 368.35C917.4 372.35 920.7 375.5 924.9 377.8C929.1 380.1 933.95 381.25 939.45 381.25ZM1020.22 394V283H1035.67V394H1020.22ZM1087.77 371.2L1088.07 354.4L1132.77 315.25H1153.92L1087.77 371.2ZM1074.72 394V283H1089.57V394H1074.72ZM1135.02 394L1100.82 355.75L1111.47 345.7L1154.82 394H1135.02ZM1216.95 395.5C1207.95 395.5 1199.95 393.8 1192.95 390.4C1185.95 386.9 1180.45 382.15 1176.45 376.15C1172.55 370.15 1170.6 363.25 1170.6 355.45C1170.6 349.05 1171.75 343.3 1174.05 338.2C1176.35 333.1 1179.5 328.7 1183.5 325C1187.6 321.3 1192.4 318.45 1197.9 316.45C1203.4 314.45 1209.3 313.45 1215.6 313.45C1221.3 313.45 1226.6 314.4 1231.5 316.3C1236.5 318.2 1240.85 320.85 1244.55 324.25C1248.25 327.65 1251.1 331.7 1253.1 336.4C1255.2 341 1256.2 346.1 1256.1 351.7L1255.95 358.9H1183.2L1179.75 346.6H1242.6L1240.35 348.55V344.95C1239.95 341.65 1238.55 338.7 1236.15 336.1C1233.75 333.5 1230.75 331.45 1227.15 329.95C1223.55 328.45 1219.7 327.7 1215.6 327.7C1209.6 327.7 1204.35 328.65 1199.85 330.55C1195.45 332.45 1192 335.4 1189.5 339.4C1187.1 343.3 1185.9 348.3 1185.9 354.4C1185.9 359.9 1187.3 364.65 1190.1 368.65C1192.9 372.65 1196.8 375.75 1201.8 377.95C1206.8 380.15 1212.55 381.25 1219.05 381.25C1224.65 381.25 1229.5 380.45 1233.6 378.85C1237.7 377.25 1241.6 375.05 1245.3 372.25L1252.65 383.5C1250.05 385.7 1246.8 387.75 1242.9 389.65C1239 391.45 1234.8 392.9 1230.3 394C1225.9 395 1221.45 395.5 1216.95 395.5ZM1325.5 395.5C1316.5 395.5 1308.5 393.8 1301.5 390.4C1294.5 386.9 1289 382.15 1285 376.15C1281.1 370.15 1279.15 363.25 1279.15 355.45C1279.15 349.05 1280.3 343.3 1282.6 338.2C1284.9 333.1 1288.05 328.7 1292.05 325C1296.15 321.3 1300.95 318.45 1306.45 316.45C1311.95 314.45 1317.85 313.45 1324.15 313.45C1329.85 313.45 1335.15 314.4 1340.05 316.3C1345.05 318.2 1349.4 320.85 1353.1 324.25C1356.8 327.65 1359.65 331.7 1361.65 336.4C1363.75 341 1364.75 346.1 1364.65 351.7L1364.5 358.9H1291.75L1288.3 346.6H1351.15L1348.9 348.55V344.95C1348.5 341.65 1347.1 338.7 1344.7 336.1C1342.3 333.5 1339.3 331.45 1335.7 329.95C1332.1 328.45 1328.25 327.7 1324.15 327.7C1318.15 327.7 1312.9 328.65 1308.4 330.55C1304 332.45 1300.55 335.4 1298.05 339.4C1295.65 343.3 1294.45 348.3 1294.45 354.4C1294.45 359.9 1295.85 364.65 1298.65 368.65C1301.45 372.65 1305.35 375.75 1310.35 377.95C1315.35 380.15 1321.1 381.25 1327.6 381.25C1333.2 381.25 1338.05 380.45 1342.15 378.85C1346.25 377.25 1350.15 375.05 1353.85 372.25L1361.2 383.5C1358.6 385.7 1355.35 387.75 1351.45 389.65C1347.55 391.45 1343.35 392.9 1338.85 394C1334.45 395 1330 395.5 1325.5 395.5ZM1420.43 394L1382.48 315.25H1399.73L1428.53 377.35L1425.08 378.7L1455.53 315.25H1472.03L1432.73 394H1420.43ZM1500.29 394V315.25H1515.74V394H1500.29ZM1507.79 297.25C1504.49 297.25 1501.94 296.4 1500.14 294.7C1498.34 293 1497.44 290.6 1497.44 287.5C1497.44 284.6 1498.34 282.25 1500.14 280.45C1502.04 278.65 1504.59 277.75 1507.79 277.75C1511.09 277.75 1513.64 278.6 1515.44 280.3C1517.24 282 1518.14 284.4 1518.14 287.5C1518.14 290.4 1517.19 292.75 1515.29 294.55C1513.49 296.35 1510.99 297.25 1507.79 297.25ZM1581.42 394L1543.47 315.25H1560.72L1589.52 377.35L1586.07 378.7L1616.52 315.25H1633.02L1593.72 394H1581.42ZM1688.48 395.5C1680.78 395.5 1673.93 393.75 1667.93 390.25C1661.93 386.65 1657.18 381.75 1653.68 375.55C1650.28 369.35 1648.58 362.3 1648.58 354.4C1648.58 346.5 1650.33 339.5 1653.83 333.4C1657.43 327.2 1662.33 322.35 1668.53 318.85C1674.73 315.35 1681.78 313.6 1689.68 313.6C1694.48 313.6 1698.88 314.25 1702.88 315.55C1706.98 316.75 1710.53 318.45 1713.53 320.65C1716.53 322.85 1718.93 325.3 1720.73 328C1722.53 330.6 1723.53 333.35 1723.73 336.25L1719.98 335.65V315.25H1735.43V394H1719.98V374.05L1723.28 373.9C1722.88 376.4 1721.68 378.95 1719.68 381.55C1717.78 384.05 1715.18 386.35 1711.88 388.45C1708.68 390.55 1705.08 392.25 1701.08 393.55C1697.08 394.85 1692.88 395.5 1688.48 395.5ZM1692.38 381.25C1697.88 381.25 1702.73 380.1 1706.93 377.8C1711.23 375.5 1714.58 372.35 1716.98 368.35C1719.38 364.25 1720.58 359.6 1720.58 354.4C1720.58 349.4 1719.38 344.9 1716.98 340.9C1714.58 336.9 1711.23 333.75 1706.93 331.45C1702.73 329.05 1697.88 327.85 1692.38 327.85C1686.88 327.85 1682.03 329.05 1677.83 331.45C1673.63 333.75 1670.33 336.9 1667.93 340.9C1665.53 344.9 1664.33 349.4 1664.33 354.4C1664.33 359.6 1665.53 364.25 1667.93 368.35C1670.33 372.35 1673.63 375.5 1677.83 377.8C1682.03 380.1 1686.88 381.25 1692.38 381.25ZM1773.6 394V315.25H1789.05V333.85L1785.15 335.05C1786.65 331.45 1789 328.05 1792.2 324.85C1795.4 321.55 1799.2 318.85 1803.6 316.75C1808.1 314.65 1812.85 313.6 1817.85 313.6C1824.75 313.6 1830.5 314.95 1835.1 317.65C1839.8 320.25 1843.3 324 1845.6 328.9C1847.9 333.8 1849.05 339.7 1849.05 346.6V394H1833.6V348.25C1833.6 343.75 1832.75 340 1831.05 337C1829.45 333.9 1827.1 331.6 1824 330.1C1821 328.5 1817.45 327.75 1813.35 327.85C1809.85 327.85 1806.6 328.45 1803.6 329.65C1800.7 330.85 1798.15 332.45 1795.95 334.45C1793.75 336.45 1792.05 338.7 1790.85 341.2C1789.65 343.6 1789.05 346.1 1789.05 348.7V394H1781.4C1779.6 394 1778.05 394 1776.75 394C1775.45 394 1774.4 394 1773.6 394Z" fill="#EFEFEF"/>
</g>
<g filter="url(#filter1_d_29_13)">
<path d="M198.469 512V464.24C198.469 462.107 198.923 460.24 199.829 458.64C200.789 456.987 202.149 455.68 203.909 454.72C205.723 453.707 207.829 453.2 210.229 453.2C212.149 453.2 213.856 453.493 215.349 454.08C216.896 454.667 218.203 455.493 219.269 456.56L217.829 460C216.709 458.88 215.456 458.08 214.069 457.6C212.683 457.12 211.349 456.88 210.069 456.88C208.256 456.88 206.789 457.2 205.669 457.84C204.549 458.48 203.723 459.36 203.189 460.48C202.656 461.6 202.389 462.88 202.389 464.32V512H200.949C200.469 512 200.016 512 199.589 512C199.216 512 198.843 512 198.469 512ZM189.109 474.16V470.48H217.029V474.16H189.109ZM233.591 512V470.4H237.431L237.831 480.48L236.951 480.96C237.698 478.827 238.791 476.907 240.231 475.2C241.671 473.44 243.378 472.053 245.351 471.04C247.378 469.973 249.671 469.44 252.231 469.44C253.565 469.44 254.845 469.573 256.071 469.84C257.298 470.053 258.338 470.347 259.191 470.72L257.911 475.2C257.005 474.667 255.991 474.32 254.871 474.16C253.805 473.947 252.845 473.84 251.991 473.84C249.538 473.84 247.405 474.24 245.591 475.04C243.831 475.84 242.338 476.96 241.111 478.4C239.938 479.787 239.058 481.36 238.471 483.12C237.885 484.827 237.591 486.587 237.591 488.4V512H233.591ZM290.362 512.8C285.669 512.8 281.509 511.867 277.882 510C274.309 508.133 271.482 505.547 269.402 502.24C267.375 498.933 266.362 495.173 266.362 490.96C266.362 486.8 267.375 483.093 269.402 479.84C271.482 476.587 274.309 474.053 277.882 472.24C281.509 470.373 285.669 469.44 290.362 469.44C295.002 469.44 299.109 470.373 302.682 472.24C306.309 474.053 309.135 476.587 311.162 479.84C313.242 483.093 314.282 486.8 314.282 490.96C314.282 495.173 313.242 498.933 311.162 502.24C309.135 505.493 306.309 508.08 302.682 510C299.109 511.867 295.002 512.8 290.362 512.8ZM290.362 508.8C294.095 508.8 297.455 508.027 300.442 506.48C303.429 504.933 305.775 502.827 307.482 500.16C309.189 497.493 310.042 494.427 310.042 490.96C310.042 487.6 309.189 484.587 307.482 481.92C305.775 479.253 303.429 477.173 300.442 475.68C297.455 474.187 294.095 473.44 290.362 473.44C286.522 473.44 283.109 474.187 280.122 475.68C277.135 477.173 274.789 479.253 273.082 481.92C271.429 484.533 270.602 487.547 270.602 490.96C270.602 494.427 271.429 497.493 273.082 500.16C274.789 502.827 277.135 504.933 280.122 506.48C283.162 508.027 286.575 508.8 290.362 508.8ZM330.31 512V470.4H334.15L334.55 480.48L333.75 480.4C334.443 478.533 335.617 476.773 337.27 475.12C338.977 473.413 341.03 472.053 343.43 471.04C345.883 469.973 348.497 469.44 351.27 469.44C354.683 469.44 357.59 470.133 359.99 471.52C362.39 472.907 364.177 474.933 365.35 477.6C366.577 480.213 367.19 483.387 367.19 487.12V512H363.19V487.52C363.19 484.427 362.657 481.84 361.59 479.76C360.577 477.68 359.11 476.08 357.19 474.96C355.27 473.84 352.977 473.28 350.31 473.28C347.963 473.28 345.83 473.707 343.91 474.56C341.99 475.36 340.283 476.453 338.79 477.84C337.35 479.227 336.23 480.773 335.43 482.48C334.683 484.133 334.31 485.867 334.31 487.68V512H332.31C332.203 512 331.99 512 331.67 512C331.35 512 330.897 512 330.31 512ZM395.237 512V458.32H399.237V512H395.237ZM383.077 474.08V470.4H412.757V474.08H383.077ZM446.357 512.8C441.77 512.8 437.69 511.893 434.117 510.08C430.597 508.267 427.85 505.733 425.877 502.48C423.904 499.227 422.917 495.44 422.917 491.12C422.917 487.867 423.477 484.933 424.597 482.32C425.77 479.707 427.37 477.44 429.397 475.52C431.424 473.547 433.824 472.053 436.597 471.04C439.37 469.973 442.357 469.44 445.557 469.44C448.757 469.44 451.664 469.92 454.277 470.88C456.89 471.787 459.104 473.147 460.917 474.96C462.784 476.72 464.197 478.827 465.157 481.28C466.117 483.733 466.544 486.453 466.437 489.44L466.357 491.92H426.117V488.24H464.197L462.517 489.36L462.437 487.44C462.437 485.307 461.77 483.173 460.437 481.04C459.157 478.853 457.264 477.04 454.757 475.6C452.25 474.16 449.157 473.44 445.477 473.44C442.117 473.44 439.05 474.08 436.277 475.36C433.504 476.587 431.29 478.507 429.637 481.12C427.984 483.68 427.157 486.933 427.157 490.88C427.157 494.507 427.957 497.653 429.557 500.32C431.157 502.987 433.424 505.067 436.357 506.56C439.344 508 442.944 508.72 447.157 508.72C449.984 508.72 452.597 508.373 454.997 507.68C457.397 506.933 459.957 505.573 462.677 503.6L464.517 506.72C463.13 507.787 461.53 508.8 459.717 509.76C457.957 510.72 455.957 511.467 453.717 512C451.53 512.533 449.077 512.8 446.357 512.8ZM482.576 512V470.4H486.416L486.816 480.48L486.016 480.4C486.709 478.533 487.882 476.773 489.536 475.12C491.242 473.413 493.296 472.053 495.696 471.04C498.149 469.973 500.762 469.44 503.536 469.44C506.949 469.44 509.856 470.133 512.256 471.52C514.656 472.907 516.442 474.933 517.616 477.6C518.842 480.213 519.456 483.387 519.456 487.12V512H515.456V487.52C515.456 484.427 514.922 481.84 513.856 479.76C512.842 477.68 511.376 476.08 509.456 474.96C507.536 473.84 505.242 473.28 502.576 473.28C500.229 473.28 498.096 473.707 496.176 474.56C494.256 475.36 492.549 476.453 491.056 477.84C489.616 479.227 488.496 480.773 487.696 482.48C486.949 484.133 486.576 485.867 486.576 487.68V512H484.576C484.469 512 484.256 512 483.936 512C483.616 512 483.162 512 482.576 512ZM556.863 512.8C552.756 512.8 549.076 511.867 545.823 510C542.623 508.08 540.089 505.493 538.223 502.24C536.356 498.987 535.423 495.28 535.423 491.12C535.423 486.907 536.356 483.173 538.223 479.92C540.143 476.667 542.729 474.107 545.983 472.24C549.289 470.373 552.996 469.44 557.103 469.44C559.556 469.44 561.823 469.76 563.903 470.4C566.036 470.987 567.956 471.84 569.663 472.96C571.423 474.08 572.943 475.467 574.223 477.12C575.503 478.72 576.489 480.48 577.183 482.4L575.663 481.12V452.8H579.663V512H575.903L575.503 500.8L577.102 499.76C576.463 501.68 575.503 503.44 574.223 505.04C572.943 506.64 571.423 508.027 569.663 509.2C567.903 510.373 565.929 511.28 563.743 511.92C561.609 512.507 559.316 512.8 556.863 512.8ZM557.583 508.72C561.103 508.72 564.249 507.973 567.023 506.48C569.796 504.933 571.983 502.853 573.583 500.24C575.183 497.573 575.983 494.507 575.983 491.04C575.983 487.68 575.209 484.667 573.663 482C572.116 479.333 569.956 477.253 567.183 475.76C564.409 474.267 561.209 473.52 557.583 473.52C554.116 473.52 551.023 474.267 548.303 475.76C545.636 477.253 543.529 479.333 541.983 482C540.436 484.613 539.663 487.627 539.663 491.04C539.663 494.4 540.436 497.413 541.983 500.08C543.529 502.747 545.636 504.853 548.303 506.4C551.023 507.947 554.116 508.72 557.583 508.72ZM645.769 512.8C641.662 512.8 637.982 511.867 634.729 510C631.529 508.08 628.995 505.493 627.129 502.24C625.262 498.987 624.329 495.28 624.329 491.12C624.329 486.907 625.262 483.173 627.129 479.92C629.049 476.667 631.635 474.107 634.889 472.24C638.195 470.373 641.902 469.44 646.009 469.44C648.462 469.44 650.729 469.76 652.809 470.4C654.942 470.987 656.862 471.84 658.569 472.96C660.329 474.08 661.849 475.467 663.129 477.12C664.409 478.72 665.395 480.48 666.089 482.4L664.569 481.12V452.8H668.569V512H664.809L664.409 500.8L666.009 499.76C665.369 501.68 664.409 503.44 663.129 505.04C661.849 506.64 660.329 508.027 658.569 509.2C656.809 510.373 654.835 511.28 652.649 511.92C650.515 512.507 648.222 512.8 645.769 512.8ZM646.489 508.72C650.009 508.72 653.155 507.973 655.929 506.48C658.702 504.933 660.889 502.853 662.489 500.24C664.089 497.573 664.889 494.507 664.889 491.04C664.889 487.68 664.115 484.667 662.569 482C661.022 479.333 658.862 477.253 656.089 475.76C653.315 474.267 650.115 473.52 646.489 473.52C643.022 473.52 639.929 474.267 637.209 475.76C634.542 477.253 632.435 479.333 630.889 482C629.342 484.613 628.569 487.627 628.569 491.04C628.569 494.4 629.342 497.413 630.889 500.08C632.435 502.747 634.542 504.853 637.209 506.4C639.929 507.947 643.022 508.72 646.489 508.72ZM707.451 512.8C702.864 512.8 698.784 511.893 695.211 510.08C691.691 508.267 688.944 505.733 686.971 502.48C684.997 499.227 684.011 495.44 684.011 491.12C684.011 487.867 684.571 484.933 685.691 482.32C686.864 479.707 688.464 477.44 690.491 475.52C692.517 473.547 694.917 472.053 697.691 471.04C700.464 469.973 703.451 469.44 706.651 469.44C709.851 469.44 712.757 469.92 715.371 470.88C717.984 471.787 720.197 473.147 722.011 474.96C723.877 476.72 725.291 478.827 726.251 481.28C727.211 483.733 727.637 486.453 727.531 489.44L727.451 491.92H687.211V488.24H725.291L723.611 489.36L723.531 487.44C723.531 485.307 722.864 483.173 721.531 481.04C720.251 478.853 718.357 477.04 715.851 475.6C713.344 474.16 710.251 473.44 706.571 473.44C703.211 473.44 700.144 474.08 697.371 475.36C694.597 476.587 692.384 478.507 690.731 481.12C689.077 483.68 688.251 486.933 688.251 490.88C688.251 494.507 689.051 497.653 690.651 500.32C692.251 502.987 694.517 505.067 697.451 506.56C700.437 508 704.037 508.72 708.251 508.72C711.077 508.72 713.691 508.373 716.091 507.68C718.491 506.933 721.051 505.573 723.771 503.6L725.611 506.72C724.224 507.787 722.624 508.8 720.811 509.76C719.051 510.72 717.051 511.467 714.811 512C712.624 512.533 710.171 512.8 707.451 512.8ZM755.048 512L734.968 470.4H739.688L757.208 507.92L755.608 509.04L774.968 470.4H779.528L758.248 512H755.048ZM809.56 512.8C804.973 512.8 800.893 511.893 797.32 510.08C793.8 508.267 791.053 505.733 789.08 502.48C787.107 499.227 786.12 495.44 786.12 491.12C786.12 487.867 786.68 484.933 787.8 482.32C788.973 479.707 790.573 477.44 792.6 475.52C794.627 473.547 797.027 472.053 799.8 471.04C802.573 469.973 805.56 469.44 808.76 469.44C811.96 469.44 814.867 469.92 817.48 470.88C820.093 471.787 822.307 473.147 824.12 474.96C825.987 476.72 827.4 478.827 828.36 481.28C829.32 483.733 829.747 486.453 829.64 489.44L829.56 491.92H789.32V488.24H827.4L825.72 489.36L825.64 487.44C825.64 485.307 824.973 483.173 823.64 481.04C822.36 478.853 820.467 477.04 817.96 475.6C815.453 474.16 812.36 473.44 808.68 473.44C805.32 473.44 802.253 474.08 799.48 475.36C796.707 476.587 794.493 478.507 792.84 481.12C791.187 483.68 790.36 486.933 790.36 490.88C790.36 494.507 791.16 497.653 792.76 500.32C794.36 502.987 796.627 505.067 799.56 506.56C802.547 508 806.147 508.72 810.36 508.72C813.187 508.72 815.8 508.373 818.2 507.68C820.6 506.933 823.16 505.573 825.88 503.6L827.72 506.72C826.333 507.787 824.733 508.8 822.92 509.76C821.16 510.72 819.16 511.467 816.92 512C814.733 512.533 812.28 512.8 809.56 512.8ZM845.139 512V452.8H849.139V512H845.139ZM887.706 512.8C883.012 512.8 878.852 511.867 875.226 510C871.652 508.133 868.826 505.547 866.746 502.24C864.719 498.933 863.706 495.173 863.706 490.96C863.706 486.8 864.719 483.093 866.746 479.84C868.826 476.587 871.652 474.053 875.226 472.24C878.852 470.373 883.012 469.44 887.706 469.44C892.346 469.44 896.452 470.373 900.026 472.24C903.652 474.053 906.479 476.587 908.506 479.84C910.586 483.093 911.626 486.8 911.626 490.96C911.626 495.173 910.586 498.933 908.506 502.24C906.479 505.493 903.652 508.08 900.026 510C896.452 511.867 892.346 512.8 887.706 512.8ZM887.706 508.8C891.439 508.8 894.799 508.027 897.786 506.48C900.772 504.933 903.119 502.827 904.826 500.16C906.532 497.493 907.386 494.427 907.386 490.96C907.386 487.6 906.532 484.587 904.826 481.92C903.119 479.253 900.772 477.173 897.786 475.68C894.799 474.187 891.439 473.44 887.706 473.44C883.866 473.44 880.452 474.187 877.466 475.68C874.479 477.173 872.132 479.253 870.426 481.92C868.772 484.533 867.946 487.547 867.946 490.96C867.946 494.427 868.772 497.493 870.426 500.16C872.132 502.827 874.479 504.933 877.466 506.48C880.506 508.027 883.919 508.8 887.706 508.8ZM927.654 529.6V470.4H931.494L931.894 481.28L930.774 482.24C931.734 479.627 933.147 477.387 935.014 475.52C936.934 473.6 939.227 472.107 941.894 471.04C944.614 469.973 947.547 469.44 950.694 469.44C954.8 469.44 958.48 470.373 961.734 472.24C964.987 474.107 967.574 476.693 969.494 480C971.414 483.253 972.374 486.987 972.374 491.2C972.374 495.307 971.44 498.987 969.574 502.24C967.76 505.493 965.2 508.053 961.894 509.92C958.587 511.787 954.827 512.72 950.614 512.72C947.414 512.72 944.48 512.187 941.814 511.12C939.2 510 936.96 508.507 935.094 506.64C933.227 504.72 931.787 502.48 930.774 499.92L931.654 500.88V529.6H927.654ZM950.054 508.72C953.574 508.72 956.694 507.973 959.414 506.48C962.134 504.933 964.267 502.853 965.814 500.24C967.414 497.573 968.187 494.56 968.134 491.2C968.134 487.733 967.334 484.667 965.734 482C964.187 479.333 962.054 477.253 959.334 475.76C956.614 474.213 953.52 473.44 950.054 473.44C946.427 473.44 943.2 474.213 940.374 475.76C937.547 477.253 935.334 479.333 933.734 482C932.187 484.613 931.387 487.653 931.334 491.12C931.334 494.533 932.134 497.573 933.734 500.24C935.334 502.853 937.52 504.933 940.294 506.48C943.12 507.973 946.374 508.72 950.054 508.72ZM987.797 512V470.4H991.637L992.037 481.52L990.837 481.12C991.37 479.413 992.197 477.867 993.317 476.48C994.49 475.04 995.877 473.787 997.477 472.72C999.077 471.653 1000.84 470.853 1002.76 470.32C1004.68 469.733 1006.78 469.44 1009.08 469.44C1011.42 469.44 1013.58 469.813 1015.56 470.56C1017.53 471.307 1019.21 472.693 1020.6 474.72C1021.98 476.693 1023.08 479.413 1023.88 482.88L1022.2 481.6L1022.52 480.4C1023.1 479.12 1023.93 477.84 1025 476.56C1026.12 475.227 1027.45 474.027 1029 472.96C1030.6 471.893 1032.38 471.04 1034.36 470.4C1036.33 469.76 1038.46 469.44 1040.76 469.44C1044.06 469.44 1046.84 470.133 1049.08 471.52C1051.37 472.907 1053.1 474.933 1054.28 477.6C1055.45 480.213 1056.04 483.387 1056.04 487.12V512H1052.04V487.52C1052.04 484.427 1051.56 481.84 1050.6 479.76C1049.69 477.627 1048.33 476.027 1046.52 474.96C1044.76 473.84 1042.6 473.28 1040.04 473.28C1037.74 473.28 1035.61 473.68 1033.64 474.48C1031.66 475.28 1029.96 476.373 1028.52 477.76C1027.08 479.147 1025.93 480.693 1025.08 482.4C1024.28 484.107 1023.88 485.893 1023.88 487.76V512H1019.88V487.52C1019.88 484.427 1019.4 481.84 1018.44 479.76C1017.48 477.627 1016.09 476.027 1014.28 474.96C1012.46 473.84 1010.25 473.28 1007.64 473.28C1005.29 473.28 1003.16 473.68 1001.24 474.48C999.37 475.28 997.717 476.4 996.277 477.84C994.89 479.227 993.797 480.773 992.997 482.48C992.197 484.133 991.797 485.867 991.797 487.68V512H987.797ZM1094.56 512.8C1089.97 512.8 1085.89 511.893 1082.32 510.08C1078.8 508.267 1076.05 505.733 1074.08 502.48C1072.11 499.227 1071.12 495.44 1071.12 491.12C1071.12 487.867 1071.68 484.933 1072.8 482.32C1073.97 479.707 1075.57 477.44 1077.6 475.52C1079.63 473.547 1082.03 472.053 1084.8 471.04C1087.57 469.973 1090.56 469.44 1093.76 469.44C1096.96 469.44 1099.87 469.92 1102.48 470.88C1105.09 471.787 1107.31 473.147 1109.12 474.96C1110.99 476.72 1112.4 478.827 1113.36 481.28C1114.32 483.733 1114.75 486.453 1114.64 489.44L1114.56 491.92H1074.32V488.24H1112.4L1110.72 489.36L1110.64 487.44C1110.64 485.307 1109.97 483.173 1108.64 481.04C1107.36 478.853 1105.47 477.04 1102.96 475.6C1100.45 474.16 1097.36 473.44 1093.68 473.44C1090.32 473.44 1087.25 474.08 1084.48 475.36C1081.71 476.587 1079.49 478.507 1077.84 481.12C1076.19 483.68 1075.36 486.933 1075.36 490.88C1075.36 494.507 1076.16 497.653 1077.76 500.32C1079.36 502.987 1081.63 505.067 1084.56 506.56C1087.55 508 1091.15 508.72 1095.36 508.72C1098.19 508.72 1100.8 508.373 1103.2 507.68C1105.6 506.933 1108.16 505.573 1110.88 503.6L1112.72 506.72C1111.33 507.787 1109.73 508.8 1107.92 509.76C1106.16 510.72 1104.16 511.467 1101.92 512C1099.73 512.533 1097.28 512.8 1094.56 512.8ZM1130.78 512V470.4H1134.62L1135.02 480.48L1134.22 480.4C1134.91 478.533 1136.09 476.773 1137.74 475.12C1139.45 473.413 1141.5 472.053 1143.9 471.04C1146.35 469.973 1148.97 469.44 1151.74 469.44C1155.15 469.44 1158.06 470.133 1160.46 471.52C1162.86 472.907 1164.65 474.933 1165.82 477.6C1167.05 480.213 1167.66 483.387 1167.66 487.12V512H1163.66V487.52C1163.66 484.427 1163.13 481.84 1162.06 479.76C1161.05 477.68 1159.58 476.08 1157.66 474.96C1155.74 473.84 1153.45 473.28 1150.78 473.28C1148.43 473.28 1146.3 473.707 1144.38 474.56C1142.46 475.36 1140.75 476.453 1139.26 477.84C1137.82 479.227 1136.7 480.773 1135.9 482.48C1135.15 484.133 1134.78 485.867 1134.78 487.68V512H1132.78C1132.67 512 1132.46 512 1132.14 512C1131.82 512 1131.37 512 1130.78 512ZM1195.71 512V458.32H1199.71V512H1195.71ZM1183.55 474.08V470.4H1213.23V474.08H1183.55ZM1299.88 512L1294.36 506.4L1292.44 504.24L1275.96 487.6C1273.93 485.52 1272.17 483.68 1270.68 482.08C1269.19 480.48 1267.91 479.04 1266.84 477.76C1265.77 476.427 1265 475.147 1264.52 473.92C1264.04 472.693 1263.8 471.333 1263.8 469.84C1263.8 467.227 1264.52 464.853 1265.96 462.72C1267.4 460.533 1269.45 458.773 1272.12 457.44C1274.79 456.107 1277.85 455.44 1281.32 455.44C1284.31 455.44 1286.97 455.893 1289.32 456.8C1291.72 457.653 1293.83 458.88 1295.64 460.48C1297.45 462.027 1298.84 463.84 1299.8 465.92L1296.6 468.4C1294.89 465.093 1292.76 462.8 1290.2 461.52C1287.64 460.187 1284.76 459.52 1281.56 459.52C1278.73 459.52 1276.31 459.92 1274.28 460.72C1272.31 461.52 1270.79 462.667 1269.72 464.16C1268.71 465.653 1268.2 467.44 1268.2 469.52C1268.2 470.853 1268.55 472.187 1269.24 473.52C1269.93 474.853 1270.76 476.107 1271.72 477.28C1272.73 478.453 1273.77 479.547 1274.84 480.56C1275.91 481.52 1276.76 482.347 1277.4 483.04L1295.88 501.6L1297.72 503.6L1305.8 512H1299.88ZM1277.32 512.88C1272.47 512.88 1268.33 512.133 1264.92 510.64C1261.51 509.093 1258.89 506.987 1257.08 504.32C1255.27 501.6 1254.36 498.453 1254.36 494.88C1254.36 491.2 1255.56 487.787 1257.96 484.64C1260.41 481.493 1264.04 479.04 1268.84 477.28L1271.72 480.32C1267.4 481.547 1264.17 483.44 1262.04 486C1259.91 488.507 1258.84 491.333 1258.84 494.48C1258.84 497.147 1259.61 499.547 1261.16 501.68C1262.71 503.813 1264.89 505.52 1267.72 506.8C1270.55 508.08 1273.88 508.72 1277.72 508.72C1280.49 508.72 1283.19 508.24 1285.8 507.28C1288.41 506.32 1290.73 504.88 1292.76 502.96C1294.79 501.04 1296.47 498.64 1297.8 495.76C1299.19 492.88 1300.07 489.493 1300.44 485.6H1305.24C1304.87 489.173 1304.09 492.427 1302.92 495.36C1301.75 498.293 1300.28 500.853 1298.52 503.04C1296.81 505.227 1294.84 507.067 1292.6 508.56C1290.41 510 1288.01 511.093 1285.4 511.84C1282.84 512.533 1280.15 512.88 1277.32 512.88ZM1359.31 512L1344.11 470.4H1348.83L1361.31 506.72L1359.39 506.56L1373.39 476.08H1376.19L1390.35 506.56L1388.11 506.72L1401.39 470.4H1405.79L1390.27 512H1388.75L1373.31 478.16L1376.59 478L1361.07 512H1359.31ZM1435.81 512.8C1431.22 512.8 1427.14 511.893 1423.57 510.08C1420.05 508.267 1417.3 505.733 1415.33 502.48C1413.36 499.227 1412.37 495.44 1412.37 491.12C1412.37 487.867 1412.93 484.933 1414.05 482.32C1415.22 479.707 1416.82 477.44 1418.85 475.52C1420.88 473.547 1423.28 472.053 1426.05 471.04C1428.82 469.973 1431.81 469.44 1435.01 469.44C1438.21 469.44 1441.12 469.92 1443.73 470.88C1446.34 471.787 1448.56 473.147 1450.37 474.96C1452.24 476.72 1453.65 478.827 1454.61 481.28C1455.57 483.733 1456 486.453 1455.89 489.44L1455.81 491.92H1415.57V488.24H1453.65L1451.97 489.36L1451.89 487.44C1451.89 485.307 1451.22 483.173 1449.89 481.04C1448.61 478.853 1446.72 477.04 1444.21 475.6C1441.7 474.16 1438.61 473.44 1434.93 473.44C1431.57 473.44 1428.5 474.08 1425.73 475.36C1422.96 476.587 1420.74 478.507 1419.09 481.12C1417.44 483.68 1416.61 486.933 1416.61 490.88C1416.61 494.507 1417.41 497.653 1419.01 500.32C1420.61 502.987 1422.88 505.067 1425.81 506.56C1428.8 508 1432.4 508.72 1436.61 508.72C1439.44 508.72 1442.05 508.373 1444.45 507.68C1446.85 506.933 1449.41 505.573 1452.13 503.6L1453.97 506.72C1452.58 507.787 1450.98 508.8 1449.17 509.76C1447.41 510.72 1445.41 511.467 1443.17 512C1440.98 512.533 1438.53 512.8 1435.81 512.8ZM1494.43 512.8C1492.03 512.8 1489.76 512.507 1487.63 511.92C1485.55 511.28 1483.63 510.4 1481.87 509.28C1480.11 508.107 1478.59 506.693 1477.31 505.04C1476.08 503.387 1475.15 501.627 1474.51 499.76L1476.27 501.12L1475.87 512H1472.03V452.8H1476.03V480.88L1474.59 482.32C1475.28 480.453 1476.24 478.72 1477.47 477.12C1478.7 475.467 1480.19 474.08 1481.95 472.96C1483.71 471.84 1485.66 470.987 1487.79 470.4C1489.92 469.76 1492.22 469.44 1494.67 469.44C1498.72 469.44 1502.38 470.373 1505.63 472.24C1508.88 474.107 1511.47 476.693 1513.39 480C1515.31 483.253 1516.27 486.987 1516.27 491.2C1516.27 495.307 1515.31 498.987 1513.39 502.24C1511.52 505.493 1508.94 508.08 1505.63 510C1502.38 511.867 1498.64 512.8 1494.43 512.8ZM1494.03 508.8C1497.6 508.8 1500.72 508.027 1503.39 506.48C1506.11 504.933 1508.24 502.827 1509.79 500.16C1511.34 497.493 1512.11 494.48 1512.11 491.12C1512.11 487.653 1511.31 484.613 1509.71 482C1508.16 479.333 1506.03 477.227 1503.31 475.68C1500.59 474.133 1497.52 473.36 1494.11 473.36C1490.43 473.36 1487.2 474.133 1484.43 475.68C1481.66 477.227 1479.5 479.333 1477.95 482C1476.4 484.613 1475.63 487.627 1475.63 491.04C1475.63 494.507 1476.43 497.573 1478.03 500.24C1479.63 502.907 1481.82 505.013 1484.59 506.56C1487.36 508.053 1490.51 508.8 1494.03 508.8ZM1577.49 512.8C1573.38 512.8 1569.7 511.867 1566.45 510C1563.25 508.08 1560.71 505.493 1558.85 502.24C1556.98 498.987 1556.05 495.28 1556.05 491.12C1556.05 486.907 1556.98 483.173 1558.85 479.92C1560.77 476.667 1563.35 474.107 1566.61 472.24C1569.91 470.373 1573.62 469.44 1577.73 469.44C1580.18 469.44 1582.45 469.76 1584.53 470.4C1586.66 470.987 1588.58 471.84 1590.29 472.96C1592.05 474.08 1593.57 475.467 1594.85 477.12C1596.13 478.72 1597.11 480.48 1597.81 482.4L1596.29 481.12V452.8H1600.29V512H1596.53L1596.13 500.8L1597.73 499.76C1597.09 501.68 1596.13 503.44 1594.85 505.04C1593.57 506.64 1592.05 508.027 1590.29 509.2C1588.53 510.373 1586.55 511.28 1584.37 511.92C1582.23 512.507 1579.94 512.8 1577.49 512.8ZM1578.21 508.72C1581.73 508.72 1584.87 507.973 1587.65 506.48C1590.42 504.933 1592.61 502.853 1594.21 500.24C1595.81 497.573 1596.61 494.507 1596.61 491.04C1596.61 487.68 1595.83 484.667 1594.29 482C1592.74 479.333 1590.58 477.253 1587.81 475.76C1585.03 474.267 1581.83 473.52 1578.21 473.52C1574.74 473.52 1571.65 474.267 1568.93 475.76C1566.26 477.253 1564.15 479.333 1562.61 482C1561.06 484.613 1560.29 487.627 1560.29 491.04C1560.29 494.4 1561.06 497.413 1562.61 500.08C1564.15 502.747 1566.26 504.853 1568.93 506.4C1571.65 507.947 1574.74 508.72 1578.21 508.72ZM1639.17 512.8C1634.58 512.8 1630.5 511.893 1626.93 510.08C1623.41 508.267 1620.66 505.733 1618.69 502.48C1616.72 499.227 1615.73 495.44 1615.73 491.12C1615.73 487.867 1616.29 484.933 1617.41 482.32C1618.58 479.707 1620.18 477.44 1622.21 475.52C1624.24 473.547 1626.64 472.053 1629.41 471.04C1632.18 469.973 1635.17 469.44 1638.37 469.44C1641.57 469.44 1644.48 469.92 1647.09 470.88C1649.7 471.787 1651.92 473.147 1653.73 474.96C1655.6 476.72 1657.01 478.827 1657.97 481.28C1658.93 483.733 1659.36 486.453 1659.25 489.44L1659.17 491.92H1618.93V488.24H1657.01L1655.33 489.36L1655.25 487.44C1655.25 485.307 1654.58 483.173 1653.25 481.04C1651.97 478.853 1650.08 477.04 1647.57 475.6C1645.06 474.16 1641.97 473.44 1638.29 473.44C1634.93 473.44 1631.86 474.08 1629.09 475.36C1626.32 476.587 1624.1 478.507 1622.45 481.12C1620.8 483.68 1619.97 486.933 1619.97 490.88C1619.97 494.507 1620.77 497.653 1622.37 500.32C1623.97 502.987 1626.24 505.067 1629.17 506.56C1632.16 508 1635.76 508.72 1639.97 508.72C1642.8 508.72 1645.41 508.373 1647.81 507.68C1650.21 506.933 1652.77 505.573 1655.49 503.6L1657.33 506.72C1655.94 507.787 1654.34 508.8 1652.53 509.76C1650.77 510.72 1648.77 511.467 1646.53 512C1644.34 512.533 1641.89 512.8 1639.17 512.8ZM1689.63 512.8C1685.41 512.8 1681.65 512.08 1678.35 510.64C1675.04 509.2 1672.45 507.387 1670.59 505.2L1673.63 502.4C1675.33 504.533 1677.57 506.16 1680.35 507.28C1683.12 508.347 1686.16 508.88 1689.47 508.88C1691.33 508.88 1693.07 508.72 1694.67 508.4C1696.32 508.08 1697.73 507.627 1698.91 507.04C1700.13 506.453 1701.09 505.68 1701.79 504.72C1702.48 503.707 1702.83 502.56 1702.83 501.28C1702.83 499.147 1701.63 497.387 1699.23 496C1698.05 495.413 1696.59 494.853 1694.83 494.32C1693.12 493.733 1691.09 493.2 1688.75 492.72C1685.55 491.92 1682.8 491.2 1680.51 490.56C1678.21 489.867 1676.4 488.987 1675.07 487.92C1674.05 487.067 1673.28 486.08 1672.75 484.96C1672.27 483.84 1672.03 482.587 1672.03 481.2C1672.03 479.493 1672.43 477.92 1673.23 476.48C1674.03 475.04 1675.17 473.787 1676.67 472.72C1678.21 471.653 1679.97 470.853 1681.95 470.32C1683.92 469.733 1686.13 469.44 1688.59 469.44C1690.77 469.44 1692.99 469.733 1695.23 470.32C1697.52 470.853 1699.65 471.627 1701.63 472.64C1703.65 473.653 1705.39 474.853 1706.83 476.24L1704.19 479.28C1702.91 478.107 1701.47 477.067 1699.87 476.16C1698.32 475.2 1696.59 474.453 1694.67 473.92C1692.8 473.387 1690.83 473.12 1688.75 473.12C1687.09 473.12 1685.49 473.307 1683.95 473.68C1682.45 474 1681.15 474.533 1680.03 475.28C1678.91 475.973 1678 476.8 1677.31 477.76C1676.61 478.72 1676.27 479.787 1676.27 480.96C1676.21 481.973 1676.4 482.827 1676.83 483.52C1677.25 484.16 1677.87 484.747 1678.67 485.28C1679.79 486.027 1681.25 486.667 1683.07 487.2C1684.88 487.68 1687.12 488.213 1689.79 488.8C1692.29 489.333 1694.53 489.867 1696.51 490.4C1698.48 490.933 1700.16 491.573 1701.55 492.32C1703.36 493.333 1704.72 494.533 1705.63 495.92C1706.59 497.307 1707.07 498.933 1707.07 500.8C1707.07 503.2 1706.32 505.307 1704.83 507.12C1703.39 508.88 1701.36 510.267 1698.75 511.28C1696.13 512.293 1693.09 512.8 1689.63 512.8ZM1725.1 512V470.4H1729.1V512H1725.1ZM1727.1 461.6C1725.93 461.6 1725.02 461.28 1724.38 460.64C1723.74 460 1723.42 459.12 1723.42 458C1723.42 456.933 1723.74 456.08 1724.38 455.44C1725.02 454.747 1725.93 454.4 1727.1 454.4C1728.28 454.4 1729.18 454.72 1729.82 455.36C1730.46 456 1730.78 456.88 1730.78 458C1730.78 459.067 1730.46 459.947 1729.82 460.64C1729.18 461.28 1728.28 461.6 1727.1 461.6ZM1769.88 530.4C1766.15 530.4 1762.87 529.867 1760.04 528.8C1757.27 527.787 1754.89 526.64 1752.92 525.36L1754.68 521.52C1755.85 522.373 1757.19 523.147 1758.68 523.84C1760.23 524.587 1761.96 525.2 1763.88 525.68C1765.8 526.16 1767.88 526.4 1770.12 526.4C1773.48 526.4 1776.41 525.733 1778.92 524.4C1781.43 523.12 1783.37 521.12 1784.76 518.4C1786.2 515.68 1786.92 512.24 1786.92 508.08V500.88L1788.12 499.92C1787.11 502.48 1785.64 504.72 1783.72 506.64C1781.8 508.56 1779.48 510.053 1776.76 511.12C1774.04 512.187 1771.05 512.72 1767.8 512.72C1763.69 512.72 1760.04 511.787 1756.84 509.92C1753.64 508.053 1751.11 505.493 1749.24 502.24C1747.37 498.987 1746.44 495.28 1746.44 491.12C1746.44 486.907 1747.4 483.173 1749.32 479.92C1751.24 476.667 1753.83 474.107 1757.08 472.24C1760.33 470.373 1764.01 469.44 1768.12 469.44C1769.88 469.44 1771.64 469.653 1773.4 470.08C1775.16 470.453 1776.79 470.987 1778.28 471.68C1779.83 472.373 1781.24 473.253 1782.52 474.32C1783.8 475.387 1784.92 476.613 1785.88 478C1786.84 479.333 1787.61 480.827 1788.2 482.48L1786.52 481.44L1786.92 470.4H1790.92V508.16C1790.92 511.947 1790.36 515.227 1789.24 518C1788.17 520.773 1786.68 523.067 1784.76 524.88C1782.84 526.693 1780.57 528.053 1777.96 528.96C1775.4 529.92 1772.71 530.4 1769.88 530.4ZM1768.68 508.72C1772.25 508.72 1775.4 507.973 1778.12 506.48C1780.89 504.933 1783.05 502.853 1784.6 500.24C1786.2 497.573 1787 494.533 1787 491.12C1787 487.653 1786.2 484.587 1784.6 481.92C1783.05 479.253 1780.89 477.173 1778.12 475.68C1775.4 474.187 1772.28 473.44 1768.76 473.44C1765.29 473.44 1762.2 474.213 1759.48 475.76C1756.76 477.253 1754.6 479.333 1753 482C1751.45 484.613 1750.68 487.627 1750.68 491.04C1750.68 494.4 1751.45 497.413 1753 500.08C1754.55 502.747 1756.65 504.853 1759.32 506.4C1762.04 507.947 1765.16 508.72 1768.68 508.72ZM1811.4 512V470.4H1815.24L1815.64 480.48L1814.84 480.4C1815.54 478.533 1816.71 476.773 1818.36 475.12C1820.07 473.413 1822.12 472.053 1824.52 471.04C1826.98 469.973 1829.59 469.44 1832.36 469.44C1835.78 469.44 1838.68 470.133 1841.08 471.52C1843.48 472.907 1845.27 474.933 1846.44 477.6C1847.67 480.213 1848.28 483.387 1848.28 487.12V512H1844.28V487.52C1844.28 484.427 1843.75 481.84 1842.68 479.76C1841.67 477.68 1840.2 476.08 1838.28 474.96C1836.36 473.84 1834.07 473.28 1831.4 473.28C1829.06 473.28 1826.92 473.707 1825 474.56C1823.08 475.36 1821.38 476.453 1819.88 477.84C1818.44 479.227 1817.32 480.773 1816.52 482.48C1815.78 484.133 1815.4 485.867 1815.4 487.68V512H1813.4C1813.3 512 1813.08 512 1812.76 512C1812.44 512 1811.99 512 1811.4 512Z" fill="#EFEFEF"/>
</g>
</g>
<defs>
<filter id="filter0_d_29_13" x="875.65" y="257.75" width="993.395" height="157.75" filterUnits="userSpaceOnUse" color-interpolation-filters="sRGB">
<feFlood flood-opacity="0" result="BackgroundImageFix"/>
<feColorMatrix in="SourceAlpha" type="matrix" values="0 0 0 0 0 0 0 0 0 0 0 0 0 0 0 0 0 0 127 0" result="hardAlpha"/>
<feOffset/>
<feGaussianBlur stdDeviation="10"/>
<feComposite in2="hardAlpha" operator="out"/>
<feColorMatrix type="matrix" values="0 0 0 0 0 0 0 0 0 0 0 0 0 0 0 0 0 0 0.5 0"/>
<feBlend mode="normal" in2="BackgroundImageFix" result="effect1_dropShadow_29_13"/>
<feBlend mode="normal" in="SourceGraphic" in2="effect1_dropShadow_29_13" result="shape"/>
</filter>
<filter id="filter1_d_29_13" x="169.109" y="432.8" width="1699.17" height="117.6" filterUnits="userSpaceOnUse" color-interpolation-filters="sRGB">
<feFlood flood-opacity="0" result="BackgroundImageFix"/>
<feColorMatrix in="SourceAlpha" type="matrix" values="0 0 0 0 0 0 0 0 0 0 0 0 0 0 0 0 0 0 127 0" result="hardAlpha"/>
<feOffset/>
<feGaussianBlur stdDeviation="10"/>
<feComposite in2="hardAlpha" operator="out"/>
<feColorMatrix type="matrix" values="0 0 0 0 0 0 0 0 0 0 0 0 0 0 0 0 0 0 0.5 0"/>
<feBlend mode="normal" in2="BackgroundImageFix" result="effect1_dropShadow_29_13"/>
<feBlend mode="normal" in="SourceGraphic" in2="effect1_dropShadow_29_13" result="shape"/>
</filter>
<clipPath id="clip0_29_13">
<rect width="1920" height="562" fill="white"/>
</clipPath>
</defs>
</svg>
