<svg width="2641" height="775" viewBox="0 0 2641 775" fill="none" xmlns="http://www.w3.org/2000/svg">
<rect width="2641" height="775" fill="#1B1B1B"/>
<g filter="url(#filter0_d_1_2)">
<path d="M787.8 394L832.65 289H850.2L894.75 394H877.2L848.7 327.1C848.2 325.9 847.5 324.15 846.6 321.85C845.8 319.45 844.9 316.9 843.9 314.2C842.9 311.5 841.95 308.95 841.05 306.55C840.15 304.05 839.45 302.1 838.95 300.7L843 300.55C842.3 302.55 841.5 304.75 840.6 307.15C839.8 309.55 838.9 312 837.9 314.5C837 317 836.1 319.4 835.2 321.7C834.3 323.9 833.5 325.9 832.8 327.7L804.45 394H787.8ZM807.45 368.5L813.75 352.9H867.15L872.4 368.5H807.45ZM921.807 394V283H937.257V394H921.807ZM989.36 371.2L989.66 354.4L1034.36 315.25H1055.51L989.36 371.2ZM976.31 394V283H991.16V394H976.31ZM1036.61 394L1002.41 355.75L1013.06 345.7L1056.41 394H1036.61ZM1118.55 395.5C1109.55 395.5 1101.55 393.8 1094.55 390.4C1087.55 386.9 1082.05 382.15 1078.05 376.15C1074.15 370.15 1072.2 363.25 1072.2 355.45C1072.2 349.05 1073.35 343.3 1075.65 338.2C1077.95 333.1 1081.1 328.7 1085.1 325C1089.2 321.3 1094 318.45 1099.5 316.45C1105 314.45 1110.9 313.45 1117.2 313.45C1122.9 313.45 1128.2 314.4 1133.1 316.3C1138.1 318.2 1142.45 320.85 1146.15 324.25C1149.85 327.65 1152.7 331.7 1154.7 336.4C1156.8 341 1157.8 346.1 1157.7 351.7L1157.55 358.9H1084.8L1081.35 346.6H1144.2L1141.95 348.55V344.95C1141.55 341.65 1140.15 338.7 1137.75 336.1C1135.35 333.5 1132.35 331.45 1128.75 329.95C1125.15 328.45 1121.3 327.7 1117.2 327.7C1111.2 327.7 1105.95 328.65 1101.45 330.55C1097.05 332.45 1093.6 335.4 1091.1 339.4C1088.7 343.3 1087.5 348.3 1087.5 354.4C1087.5 359.9 1088.9 364.65 1091.7 368.65C1094.5 372.65 1098.4 375.75 1103.4 377.95C1108.4 380.15 1114.15 381.25 1120.65 381.25C1126.25 381.25 1131.1 380.45 1135.2 378.85C1139.3 377.25 1143.2 375.05 1146.9 372.25L1154.25 383.5C1151.65 385.7 1148.4 387.75 1144.5 389.65C1140.6 391.45 1136.4 392.9 1131.9 394C1127.5 395 1123.05 395.5 1118.55 395.5ZM1227.09 395.5C1218.09 395.5 1210.09 393.8 1203.09 390.4C1196.09 386.9 1190.59 382.15 1186.59 376.15C1182.69 370.15 1180.74 363.25 1180.74 355.45C1180.74 349.05 1181.89 343.3 1184.19 338.2C1186.49 333.1 1189.64 328.7 1193.64 325C1197.74 321.3 1202.54 318.45 1208.04 316.45C1213.54 314.45 1219.44 313.45 1225.74 313.45C1231.44 313.45 1236.74 314.4 1241.64 316.3C1246.64 318.2 1250.99 320.85 1254.69 324.25C1258.39 327.65 1261.24 331.7 1263.24 336.4C1265.34 341 1266.34 346.1 1266.24 351.7L1266.09 358.9H1193.34L1189.89 346.6H1252.74L1250.49 348.55V344.95C1250.09 341.65 1248.69 338.7 1246.29 336.1C1243.89 333.5 1240.89 331.45 1237.29 329.95C1233.69 328.45 1229.84 327.7 1225.74 327.7C1219.74 327.7 1214.49 328.65 1209.99 330.55C1205.59 332.45 1202.14 335.4 1199.64 339.4C1197.24 343.3 1196.04 348.3 1196.04 354.4C1196.04 359.9 1197.44 364.65 1200.24 368.65C1203.04 372.65 1206.94 375.75 1211.94 377.95C1216.94 380.15 1222.69 381.25 1229.19 381.25C1234.79 381.25 1239.64 380.45 1243.74 378.85C1247.84 377.25 1251.74 375.05 1255.44 372.25L1262.79 383.5C1260.19 385.7 1256.94 387.75 1253.04 389.65C1249.14 391.45 1244.94 392.9 1240.44 394C1236.04 395 1231.59 395.5 1227.09 395.5ZM1322.02 394L1284.07 315.25H1301.32L1330.12 377.35L1326.67 378.7L1357.12 315.25H1373.62L1334.32 394H1322.02ZM1452.93 394V378.55H1474.08V304.45H1452.93V289H1511.43V304.45H1490.28V378.55H1511.43V394H1452.93ZM1574.27 394L1536.32 315.25H1553.57L1582.37 377.35L1578.92 378.7L1609.37 315.25H1625.87L1586.57 394H1574.27ZM1681.33 395.5C1673.63 395.5 1666.78 393.75 1660.78 390.25C1654.78 386.65 1650.03 381.75 1646.53 375.55C1643.13 369.35 1641.43 362.3 1641.43 354.4C1641.43 346.5 1643.18 339.5 1646.68 333.4C1650.28 327.2 1655.18 322.35 1661.38 318.85C1667.58 315.35 1674.63 313.6 1682.53 313.6C1687.33 313.6 1691.73 314.25 1695.73 315.55C1699.83 316.75 1703.38 318.45 1706.38 320.65C1709.38 322.85 1711.78 325.3 1713.58 328C1715.38 330.6 1716.38 333.35 1716.58 336.25L1712.83 335.65V315.25H1728.28V394H1712.83V374.05L1716.13 373.9C1715.73 376.4 1714.53 378.95 1712.53 381.55C1710.63 384.05 1708.03 386.35 1704.73 388.45C1701.53 390.55 1697.93 392.25 1693.93 393.55C1689.93 394.85 1685.73 395.5 1681.33 395.5ZM1685.23 381.25C1690.73 381.25 1695.58 380.1 1699.78 377.8C1704.08 375.5 1707.43 372.35 1709.83 368.35C1712.23 364.25 1713.43 359.6 1713.43 354.4C1713.43 349.4 1712.23 344.9 1709.83 340.9C1707.43 336.9 1704.08 333.75 1699.78 331.45C1695.58 329.05 1690.73 327.85 1685.23 327.85C1679.73 327.85 1674.88 329.05 1670.68 331.45C1666.48 333.75 1663.18 336.9 1660.78 340.9C1658.38 344.9 1657.18 349.4 1657.18 354.4C1657.18 359.6 1658.38 364.25 1660.78 368.35C1663.18 372.35 1666.48 375.5 1670.68 377.8C1674.88 380.1 1679.73 381.25 1685.23 381.25ZM1766.45 394V315.25H1781.9V333.85L1778 335.05C1779.5 331.45 1781.85 328.05 1785.05 324.85C1788.25 321.55 1792.05 318.85 1796.45 316.75C1800.95 314.65 1805.7 313.6 1810.7 313.6C1817.6 313.6 1823.35 314.95 1827.95 317.65C1832.65 320.25 1836.15 324 1838.45 328.9C1840.75 333.8 1841.9 339.7 1841.9 346.6V394H1826.45V348.25C1826.45 343.75 1825.6 340 1823.9 337C1822.3 333.9 1819.95 331.6 1816.85 330.1C1813.85 328.5 1810.3 327.75 1806.2 327.85C1802.7 327.85 1799.45 328.45 1796.45 329.65C1793.55 330.85 1791 332.45 1788.8 334.45C1786.6 336.45 1784.9 338.7 1783.7 341.2C1782.5 343.6 1781.9 346.1 1781.9 348.7V394H1774.25C1772.45 394 1770.9 394 1769.6 394C1768.3 394 1767.25 394 1766.45 394Z" fill="#EFEFEF"/>
</g>
<g filter="url(#filter1_d_1_2)">
<rect x="2441" y="575" width="160" height="160" fill="#EFEFEF"/>
<g filter="url(#filter2_i_1_2)">
<path d="M2458.94 691L2487.84 623.8H2500.22L2528.92 691H2515.77L2498.49 650.488C2498.11 649.464 2497.63 648.216 2497.05 646.744C2496.54 645.272 2495.96 643.736 2495.32 642.136C2494.75 640.472 2494.17 638.904 2493.6 637.432C2493.08 635.896 2492.67 634.616 2492.35 633.592L2495.13 633.496C2494.75 634.84 2494.27 636.28 2493.69 637.816C2493.18 639.288 2492.64 640.792 2492.06 642.328C2491.48 643.8 2490.91 645.272 2490.33 646.744C2489.76 648.152 2489.24 649.496 2488.8 650.776L2471.52 691H2458.94ZM2471.9 676.024L2476.41 665.176H2510.68L2514.24 676.024H2471.9ZM2568.75 701.272L2530.54 623.8H2543.21L2581.61 701.272H2568.75Z" fill="#1B1B1B"/>
</g>
</g>
<g filter="url(#filter3_d_1_2)">
<path d="M498.469 512V464.24C498.469 462.107 498.923 460.24 499.829 458.64C500.789 456.987 502.149 455.68 503.909 454.72C505.723 453.707 507.829 453.2 510.229 453.2C512.149 453.2 513.856 453.493 515.349 454.08C516.896 454.667 518.203 455.493 519.269 456.56L517.829 460C516.709 458.88 515.456 458.08 514.069 457.6C512.683 457.12 511.349 456.88 510.069 456.88C508.256 456.88 506.789 457.2 505.669 457.84C504.549 458.48 503.723 459.36 503.189 460.48C502.656 461.6 502.389 462.88 502.389 464.32V512H500.949C500.469 512 500.016 512 499.589 512C499.216 512 498.843 512 498.469 512ZM489.109 474.16V470.48H517.029V474.16H489.109ZM533.591 512V470.4H537.431L537.831 480.48L536.951 480.96C537.698 478.827 538.791 476.907 540.231 475.2C541.671 473.44 543.378 472.053 545.351 471.04C547.378 469.973 549.671 469.44 552.231 469.44C553.565 469.44 554.845 469.573 556.071 469.84C557.298 470.053 558.338 470.347 559.191 470.72L557.911 475.2C557.005 474.667 555.991 474.32 554.871 474.16C553.805 473.947 552.845 473.84 551.991 473.84C549.538 473.84 547.405 474.24 545.591 475.04C543.831 475.84 542.338 476.96 541.111 478.4C539.938 479.787 539.058 481.36 538.471 483.12C537.885 484.827 537.591 486.587 537.591 488.4V512H533.591ZM590.362 512.8C585.669 512.8 581.509 511.867 577.882 510C574.309 508.133 571.482 505.547 569.402 502.24C567.375 498.933 566.362 495.173 566.362 490.96C566.362 486.8 567.375 483.093 569.402 479.84C571.482 476.587 574.309 474.053 577.882 472.24C581.509 470.373 585.669 469.44 590.362 469.44C595.002 469.44 599.109 470.373 602.682 472.24C606.309 474.053 609.135 476.587 611.162 479.84C613.242 483.093 614.282 486.8 614.282 490.96C614.282 495.173 613.242 498.933 611.162 502.24C609.135 505.493 606.309 508.08 602.682 510C599.109 511.867 595.002 512.8 590.362 512.8ZM590.362 508.8C594.095 508.8 597.455 508.027 600.442 506.48C603.429 504.933 605.775 502.827 607.482 500.16C609.189 497.493 610.042 494.427 610.042 490.96C610.042 487.6 609.189 484.587 607.482 481.92C605.775 479.253 603.429 477.173 600.442 475.68C597.455 474.187 594.095 473.44 590.362 473.44C586.522 473.44 583.109 474.187 580.122 475.68C577.135 477.173 574.789 479.253 573.082 481.92C571.429 484.533 570.602 487.547 570.602 490.96C570.602 494.427 571.429 497.493 573.082 500.16C574.789 502.827 577.135 504.933 580.122 506.48C583.162 508.027 586.575 508.8 590.362 508.8ZM630.31 512V470.4H634.15L634.55 480.48L633.75 480.4C634.443 478.533 635.617 476.773 637.27 475.12C638.977 473.413 641.03 472.053 643.43 471.04C645.883 469.973 648.497 469.44 651.27 469.44C654.683 469.44 657.59 470.133 659.99 471.52C662.39 472.907 664.177 474.933 665.35 477.6C666.577 480.213 667.19 483.387 667.19 487.12V512H663.19V487.52C663.19 484.427 662.657 481.84 661.59 479.76C660.577 477.68 659.11 476.08 657.19 474.96C655.27 473.84 652.977 473.28 650.31 473.28C647.963 473.28 645.83 473.707 643.91 474.56C641.99 475.36 640.283 476.453 638.79 477.84C637.35 479.227 636.23 480.773 635.43 482.48C634.683 484.133 634.31 485.867 634.31 487.68V512H632.31C632.203 512 631.99 512 631.67 512C631.35 512 630.897 512 630.31 512ZM695.237 512V458.32H699.237V512H695.237ZM683.077 474.08V470.4H712.757V474.08H683.077ZM746.357 512.8C741.77 512.8 737.69 511.893 734.117 510.08C730.597 508.267 727.85 505.733 725.877 502.48C723.904 499.227 722.917 495.44 722.917 491.12C722.917 487.867 723.477 484.933 724.597 482.32C725.77 479.707 727.37 477.44 729.397 475.52C731.424 473.547 733.824 472.053 736.597 471.04C739.37 469.973 742.357 469.44 745.557 469.44C748.757 469.44 751.664 469.92 754.277 470.88C756.89 471.787 759.104 473.147 760.917 474.96C762.784 476.72 764.197 478.827 765.157 481.28C766.117 483.733 766.544 486.453 766.437 489.44L766.357 491.92H726.117V488.24H764.197L762.517 489.36L762.437 487.44C762.437 485.307 761.77 483.173 760.437 481.04C759.157 478.853 757.264 477.04 754.757 475.6C752.25 474.16 749.157 473.44 745.477 473.44C742.117 473.44 739.05 474.08 736.277 475.36C733.504 476.587 731.29 478.507 729.637 481.12C727.984 483.68 727.157 486.933 727.157 490.88C727.157 494.507 727.957 497.653 729.557 500.32C731.157 502.987 733.424 505.067 736.357 506.56C739.344 508 742.944 508.72 747.157 508.72C749.984 508.72 752.597 508.373 754.997 507.68C757.397 506.933 759.957 505.573 762.677 503.6L764.517 506.72C763.13 507.787 761.53 508.8 759.717 509.76C757.957 510.72 755.957 511.467 753.717 512C751.53 512.533 749.077 512.8 746.357 512.8ZM782.576 512V470.4H786.416L786.816 480.48L786.016 480.4C786.709 478.533 787.882 476.773 789.536 475.12C791.242 473.413 793.296 472.053 795.696 471.04C798.149 469.973 800.762 469.44 803.536 469.44C806.949 469.44 809.856 470.133 812.256 471.52C814.656 472.907 816.442 474.933 817.616 477.6C818.842 480.213 819.456 483.387 819.456 487.12V512H815.456V487.52C815.456 484.427 814.922 481.84 813.856 479.76C812.842 477.68 811.376 476.08 809.456 474.96C807.536 473.84 805.242 473.28 802.576 473.28C800.229 473.28 798.096 473.707 796.176 474.56C794.256 475.36 792.549 476.453 791.056 477.84C789.616 479.227 788.496 480.773 787.696 482.48C786.949 484.133 786.576 485.867 786.576 487.68V512H784.576C784.469 512 784.256 512 783.936 512C783.616 512 783.162 512 782.576 512ZM856.863 512.8C852.756 512.8 849.076 511.867 845.823 510C842.623 508.08 840.089 505.493 838.223 502.24C836.356 498.987 835.423 495.28 835.423 491.12C835.423 486.907 836.356 483.173 838.223 479.92C840.143 476.667 842.729 474.107 845.983 472.24C849.289 470.373 852.996 469.44 857.103 469.44C859.556 469.44 861.823 469.76 863.903 470.4C866.036 470.987 867.956 471.84 869.663 472.96C871.423 474.08 872.943 475.467 874.223 477.12C875.503 478.72 876.489 480.48 877.183 482.4L875.663 481.12V452.8H879.663V512H875.903L875.503 500.8L877.102 499.76C876.463 501.68 875.503 503.44 874.223 505.04C872.943 506.64 871.423 508.027 869.663 509.2C867.903 510.373 865.929 511.28 863.743 511.92C861.609 512.507 859.316 512.8 856.863 512.8ZM857.583 508.72C861.103 508.72 864.249 507.973 867.023 506.48C869.796 504.933 871.983 502.853 873.583 500.24C875.183 497.573 875.983 494.507 875.983 491.04C875.983 487.68 875.209 484.667 873.663 482C872.116 479.333 869.956 477.253 867.183 475.76C864.409 474.267 861.209 473.52 857.583 473.52C854.116 473.52 851.023 474.267 848.303 475.76C845.636 477.253 843.529 479.333 841.983 482C840.436 484.613 839.663 487.627 839.663 491.04C839.663 494.4 840.436 497.413 841.983 500.08C843.529 502.747 845.636 504.853 848.303 506.4C851.023 507.947 854.116 508.72 857.583 508.72ZM945.769 512.8C941.662 512.8 937.982 511.867 934.729 510C931.529 508.08 928.995 505.493 927.129 502.24C925.262 498.987 924.329 495.28 924.329 491.12C924.329 486.907 925.262 483.173 927.129 479.92C929.049 476.667 931.635 474.107 934.889 472.24C938.195 470.373 941.902 469.44 946.009 469.44C948.462 469.44 950.729 469.76 952.809 470.4C954.942 470.987 956.862 471.84 958.569 472.96C960.329 474.08 961.849 475.467 963.129 477.12C964.409 478.72 965.395 480.48 966.089 482.4L964.569 481.12V452.8H968.569V512H964.809L964.409 500.8L966.009 499.76C965.369 501.68 964.409 503.44 963.129 505.04C961.849 506.64 960.329 508.027 958.569 509.2C956.809 510.373 954.835 511.28 952.649 511.92C950.515 512.507 948.222 512.8 945.769 512.8ZM946.489 508.72C950.009 508.72 953.155 507.973 955.929 506.48C958.702 504.933 960.889 502.853 962.489 500.24C964.089 497.573 964.889 494.507 964.889 491.04C964.889 487.68 964.115 484.667 962.569 482C961.022 479.333 958.862 477.253 956.089 475.76C953.315 474.267 950.115 473.52 946.489 473.52C943.022 473.52 939.929 474.267 937.209 475.76C934.542 477.253 932.435 479.333 930.889 482C929.342 484.613 928.569 487.627 928.569 491.04C928.569 494.4 929.342 497.413 930.889 500.08C932.435 502.747 934.542 504.853 937.209 506.4C939.929 507.947 943.022 508.72 946.489 508.72ZM1007.45 512.8C1002.86 512.8 998.784 511.893 995.211 510.08C991.691 508.267 988.944 505.733 986.971 502.48C984.997 499.227 984.011 495.44 984.011 491.12C984.011 487.867 984.571 484.933 985.691 482.32C986.864 479.707 988.464 477.44 990.491 475.52C992.517 473.547 994.917 472.053 997.691 471.04C1000.46 469.973 1003.45 469.44 1006.65 469.44C1009.85 469.44 1012.76 469.92 1015.37 470.88C1017.98 471.787 1020.2 473.147 1022.01 474.96C1023.88 476.72 1025.29 478.827 1026.25 481.28C1027.21 483.733 1027.64 486.453 1027.53 489.44L1027.45 491.92H987.211V488.24H1025.29L1023.61 489.36L1023.53 487.44C1023.53 485.307 1022.86 483.173 1021.53 481.04C1020.25 478.853 1018.36 477.04 1015.85 475.6C1013.34 474.16 1010.25 473.44 1006.57 473.44C1003.21 473.44 1000.14 474.08 997.371 475.36C994.597 476.587 992.384 478.507 990.731 481.12C989.077 483.68 988.251 486.933 988.251 490.88C988.251 494.507 989.051 497.653 990.651 500.32C992.251 502.987 994.517 505.067 997.451 506.56C1000.44 508 1004.04 508.72 1008.25 508.72C1011.08 508.72 1013.69 508.373 1016.09 507.68C1018.49 506.933 1021.05 505.573 1023.77 503.6L1025.61 506.72C1024.22 507.787 1022.62 508.8 1020.81 509.76C1019.05 510.72 1017.05 511.467 1014.81 512C1012.62 512.533 1010.17 512.8 1007.45 512.8ZM1055.05 512L1034.97 470.4H1039.69L1057.21 507.92L1055.61 509.04L1074.97 470.4H1079.53L1058.25 512H1055.05ZM1109.56 512.8C1104.97 512.8 1100.89 511.893 1097.32 510.08C1093.8 508.267 1091.05 505.733 1089.08 502.48C1087.11 499.227 1086.12 495.44 1086.12 491.12C1086.12 487.867 1086.68 484.933 1087.8 482.32C1088.97 479.707 1090.57 477.44 1092.6 475.52C1094.63 473.547 1097.03 472.053 1099.8 471.04C1102.57 469.973 1105.56 469.44 1108.76 469.44C1111.96 469.44 1114.87 469.92 1117.48 470.88C1120.09 471.787 1122.31 473.147 1124.12 474.96C1125.99 476.72 1127.4 478.827 1128.36 481.28C1129.32 483.733 1129.75 486.453 1129.64 489.44L1129.56 491.92H1089.32V488.24H1127.4L1125.72 489.36L1125.64 487.44C1125.64 485.307 1124.97 483.173 1123.64 481.04C1122.36 478.853 1120.47 477.04 1117.96 475.6C1115.45 474.16 1112.36 473.44 1108.68 473.44C1105.32 473.44 1102.25 474.08 1099.48 475.36C1096.71 476.587 1094.49 478.507 1092.84 481.12C1091.19 483.68 1090.36 486.933 1090.36 490.88C1090.36 494.507 1091.16 497.653 1092.76 500.32C1094.36 502.987 1096.63 505.067 1099.56 506.56C1102.55 508 1106.15 508.72 1110.36 508.72C1113.19 508.72 1115.8 508.373 1118.2 507.68C1120.6 506.933 1123.16 505.573 1125.88 503.6L1127.72 506.72C1126.33 507.787 1124.73 508.8 1122.92 509.76C1121.16 510.72 1119.16 511.467 1116.92 512C1114.73 512.533 1112.28 512.8 1109.56 512.8ZM1145.14 512V452.8H1149.14V512H1145.14ZM1187.71 512.8C1183.01 512.8 1178.85 511.867 1175.23 510C1171.65 508.133 1168.83 505.547 1166.75 502.24C1164.72 498.933 1163.71 495.173 1163.71 490.96C1163.71 486.8 1164.72 483.093 1166.75 479.84C1168.83 476.587 1171.65 474.053 1175.23 472.24C1178.85 470.373 1183.01 469.44 1187.71 469.44C1192.35 469.44 1196.45 470.373 1200.03 472.24C1203.65 474.053 1206.48 476.587 1208.51 479.84C1210.59 483.093 1211.63 486.8 1211.63 490.96C1211.63 495.173 1210.59 498.933 1208.51 502.24C1206.48 505.493 1203.65 508.08 1200.03 510C1196.45 511.867 1192.35 512.8 1187.71 512.8ZM1187.71 508.8C1191.44 508.8 1194.8 508.027 1197.79 506.48C1200.77 504.933 1203.12 502.827 1204.83 500.16C1206.53 497.493 1207.39 494.427 1207.39 490.96C1207.39 487.6 1206.53 484.587 1204.83 481.92C1203.12 479.253 1200.77 477.173 1197.79 475.68C1194.8 474.187 1191.44 473.44 1187.71 473.44C1183.87 473.44 1180.45 474.187 1177.47 475.68C1174.48 477.173 1172.13 479.253 1170.43 481.92C1168.77 484.533 1167.95 487.547 1167.95 490.96C1167.95 494.427 1168.77 497.493 1170.43 500.16C1172.13 502.827 1174.48 504.933 1177.47 506.48C1180.51 508.027 1183.92 508.8 1187.71 508.8ZM1227.65 529.6V470.4H1231.49L1231.89 481.28L1230.77 482.24C1231.73 479.627 1233.15 477.387 1235.01 475.52C1236.93 473.6 1239.23 472.107 1241.89 471.04C1244.61 469.973 1247.55 469.44 1250.69 469.44C1254.8 469.44 1258.48 470.373 1261.73 472.24C1264.99 474.107 1267.57 476.693 1269.49 480C1271.41 483.253 1272.37 486.987 1272.37 491.2C1272.37 495.307 1271.44 498.987 1269.57 502.24C1267.76 505.493 1265.2 508.053 1261.89 509.92C1258.59 511.787 1254.83 512.72 1250.61 512.72C1247.41 512.72 1244.48 512.187 1241.81 511.12C1239.2 510 1236.96 508.507 1235.09 506.64C1233.23 504.72 1231.79 502.48 1230.77 499.92L1231.65 500.88V529.6H1227.65ZM1250.05 508.72C1253.57 508.72 1256.69 507.973 1259.41 506.48C1262.13 504.933 1264.27 502.853 1265.81 500.24C1267.41 497.573 1268.19 494.56 1268.13 491.2C1268.13 487.733 1267.33 484.667 1265.73 482C1264.19 479.333 1262.05 477.253 1259.33 475.76C1256.61 474.213 1253.52 473.44 1250.05 473.44C1246.43 473.44 1243.2 474.213 1240.37 475.76C1237.55 477.253 1235.33 479.333 1233.73 482C1232.19 484.613 1231.39 487.653 1231.33 491.12C1231.33 494.533 1232.13 497.573 1233.73 500.24C1235.33 502.853 1237.52 504.933 1240.29 506.48C1243.12 507.973 1246.37 508.72 1250.05 508.72ZM1287.8 512V470.4H1291.64L1292.04 481.52L1290.84 481.12C1291.37 479.413 1292.2 477.867 1293.32 476.48C1294.49 475.04 1295.88 473.787 1297.48 472.72C1299.08 471.653 1300.84 470.853 1302.76 470.32C1304.68 469.733 1306.78 469.44 1309.08 469.44C1311.42 469.44 1313.58 469.813 1315.56 470.56C1317.53 471.307 1319.21 472.693 1320.6 474.72C1321.98 476.693 1323.08 479.413 1323.88 482.88L1322.2 481.6L1322.52 480.4C1323.1 479.12 1323.93 477.84 1325 476.56C1326.12 475.227 1327.45 474.027 1329 472.96C1330.6 471.893 1332.38 471.04 1334.36 470.4C1336.33 469.76 1338.46 469.44 1340.76 469.44C1344.06 469.44 1346.84 470.133 1349.08 471.52C1351.37 472.907 1353.1 474.933 1354.28 477.6C1355.45 480.213 1356.04 483.387 1356.04 487.12V512H1352.04V487.52C1352.04 484.427 1351.56 481.84 1350.6 479.76C1349.69 477.627 1348.33 476.027 1346.52 474.96C1344.76 473.84 1342.6 473.28 1340.04 473.28C1337.74 473.28 1335.61 473.68 1333.64 474.48C1331.66 475.28 1329.96 476.373 1328.52 477.76C1327.08 479.147 1325.93 480.693 1325.08 482.4C1324.28 484.107 1323.88 485.893 1323.88 487.76V512H1319.88V487.52C1319.88 484.427 1319.4 481.84 1318.44 479.76C1317.48 477.627 1316.09 476.027 1314.28 474.96C1312.46 473.84 1310.25 473.28 1307.64 473.28C1305.29 473.28 1303.16 473.68 1301.24 474.48C1299.37 475.28 1297.72 476.4 1296.28 477.84C1294.89 479.227 1293.8 480.773 1293 482.48C1292.2 484.133 1291.8 485.867 1291.8 487.68V512H1287.8ZM1394.56 512.8C1389.97 512.8 1385.89 511.893 1382.32 510.08C1378.8 508.267 1376.05 505.733 1374.08 502.48C1372.11 499.227 1371.12 495.44 1371.12 491.12C1371.12 487.867 1371.68 484.933 1372.8 482.32C1373.97 479.707 1375.57 477.44 1377.6 475.52C1379.63 473.547 1382.03 472.053 1384.8 471.04C1387.57 469.973 1390.56 469.44 1393.76 469.44C1396.96 469.44 1399.87 469.92 1402.48 470.88C1405.09 471.787 1407.31 473.147 1409.12 474.96C1410.99 476.72 1412.4 478.827 1413.36 481.28C1414.32 483.733 1414.75 486.453 1414.64 489.44L1414.56 491.92H1374.32V488.24H1412.4L1410.72 489.36L1410.64 487.44C1410.64 485.307 1409.97 483.173 1408.64 481.04C1407.36 478.853 1405.47 477.04 1402.96 475.6C1400.45 474.16 1397.36 473.44 1393.68 473.44C1390.32 473.44 1387.25 474.08 1384.48 475.36C1381.71 476.587 1379.49 478.507 1377.84 481.12C1376.19 483.68 1375.36 486.933 1375.36 490.88C1375.36 494.507 1376.16 497.653 1377.76 500.32C1379.36 502.987 1381.63 505.067 1384.56 506.56C1387.55 508 1391.15 508.72 1395.36 508.72C1398.19 508.72 1400.8 508.373 1403.2 507.68C1405.6 506.933 1408.16 505.573 1410.88 503.6L1412.72 506.72C1411.33 507.787 1409.73 508.8 1407.92 509.76C1406.16 510.72 1404.16 511.467 1401.92 512C1399.73 512.533 1397.28 512.8 1394.56 512.8ZM1430.78 512V470.4H1434.62L1435.02 480.48L1434.22 480.4C1434.91 478.533 1436.09 476.773 1437.74 475.12C1439.45 473.413 1441.5 472.053 1443.9 471.04C1446.35 469.973 1448.97 469.44 1451.74 469.44C1455.15 469.44 1458.06 470.133 1460.46 471.52C1462.86 472.907 1464.65 474.933 1465.82 477.6C1467.05 480.213 1467.66 483.387 1467.66 487.12V512H1463.66V487.52C1463.66 484.427 1463.13 481.84 1462.06 479.76C1461.05 477.68 1459.58 476.08 1457.66 474.96C1455.74 473.84 1453.45 473.28 1450.78 473.28C1448.43 473.28 1446.3 473.707 1444.38 474.56C1442.46 475.36 1440.75 476.453 1439.26 477.84C1437.82 479.227 1436.7 480.773 1435.9 482.48C1435.15 484.133 1434.78 485.867 1434.78 487.68V512H1432.78C1432.67 512 1432.46 512 1432.14 512C1431.82 512 1431.37 512 1430.78 512ZM1495.71 512V458.32H1499.71V512H1495.71ZM1483.55 474.08V470.4H1513.23V474.08H1483.55ZM1599.88 512L1594.36 506.4L1592.44 504.24L1575.96 487.6C1573.93 485.52 1572.17 483.68 1570.68 482.08C1569.19 480.48 1567.91 479.04 1566.84 477.76C1565.77 476.427 1565 475.147 1564.52 473.92C1564.04 472.693 1563.8 471.333 1563.8 469.84C1563.8 467.227 1564.52 464.853 1565.96 462.72C1567.4 460.533 1569.45 458.773 1572.12 457.44C1574.79 456.107 1577.85 455.44 1581.32 455.44C1584.31 455.44 1586.97 455.893 1589.32 456.8C1591.72 457.653 1593.83 458.88 1595.64 460.48C1597.45 462.027 1598.84 463.84 1599.8 465.92L1596.6 468.4C1594.89 465.093 1592.76 462.8 1590.2 461.52C1587.64 460.187 1584.76 459.52 1581.56 459.52C1578.73 459.52 1576.31 459.92 1574.28 460.72C1572.31 461.52 1570.79 462.667 1569.72 464.16C1568.71 465.653 1568.2 467.44 1568.2 469.52C1568.2 470.853 1568.55 472.187 1569.24 473.52C1569.93 474.853 1570.76 476.107 1571.72 477.28C1572.73 478.453 1573.77 479.547 1574.84 480.56C1575.91 481.52 1576.76 482.347 1577.4 483.04L1595.88 501.6L1597.72 503.6L1605.8 512H1599.88ZM1577.32 512.88C1572.47 512.88 1568.33 512.133 1564.92 510.64C1561.51 509.093 1558.89 506.987 1557.08 504.32C1555.27 501.6 1554.36 498.453 1554.36 494.88C1554.36 491.2 1555.56 487.787 1557.96 484.64C1560.41 481.493 1564.04 479.04 1568.84 477.28L1571.72 480.32C1567.4 481.547 1564.17 483.44 1562.04 486C1559.91 488.507 1558.84 491.333 1558.84 494.48C1558.84 497.147 1559.61 499.547 1561.16 501.68C1562.71 503.813 1564.89 505.52 1567.72 506.8C1570.55 508.08 1573.88 508.72 1577.72 508.72C1580.49 508.72 1583.19 508.24 1585.8 507.28C1588.41 506.32 1590.73 504.88 1592.76 502.96C1594.79 501.04 1596.47 498.64 1597.8 495.76C1599.19 492.88 1600.07 489.493 1600.44 485.6H1605.24C1604.87 489.173 1604.09 492.427 1602.92 495.36C1601.75 498.293 1600.28 500.853 1598.52 503.04C1596.81 505.227 1594.84 507.067 1592.6 508.56C1590.41 510 1588.01 511.093 1585.4 511.84C1582.84 512.533 1580.15 512.88 1577.32 512.88ZM1659.31 512L1644.11 470.4H1648.83L1661.31 506.72L1659.39 506.56L1673.39 476.08H1676.19L1690.35 506.56L1688.11 506.72L1701.39 470.4H1705.79L1690.27 512H1688.75L1673.31 478.16L1676.59 478L1661.07 512H1659.31ZM1735.81 512.8C1731.22 512.8 1727.14 511.893 1723.57 510.08C1720.05 508.267 1717.3 505.733 1715.33 502.48C1713.36 499.227 1712.37 495.44 1712.37 491.12C1712.37 487.867 1712.93 484.933 1714.05 482.32C1715.22 479.707 1716.82 477.44 1718.85 475.52C1720.88 473.547 1723.28 472.053 1726.05 471.04C1728.82 469.973 1731.81 469.44 1735.01 469.44C1738.21 469.44 1741.12 469.92 1743.73 470.88C1746.34 471.787 1748.56 473.147 1750.37 474.96C1752.24 476.72 1753.65 478.827 1754.61 481.28C1755.57 483.733 1756 486.453 1755.89 489.44L1755.81 491.92H1715.57V488.24H1753.65L1751.97 489.36L1751.89 487.44C1751.89 485.307 1751.22 483.173 1749.89 481.04C1748.61 478.853 1746.72 477.04 1744.21 475.6C1741.7 474.16 1738.61 473.44 1734.93 473.44C1731.57 473.44 1728.5 474.08 1725.73 475.36C1722.96 476.587 1720.74 478.507 1719.09 481.12C1717.44 483.68 1716.61 486.933 1716.61 490.88C1716.61 494.507 1717.41 497.653 1719.01 500.32C1720.61 502.987 1722.88 505.067 1725.81 506.56C1728.8 508 1732.4 508.72 1736.61 508.72C1739.44 508.72 1742.05 508.373 1744.45 507.68C1746.85 506.933 1749.41 505.573 1752.13 503.6L1753.97 506.72C1752.58 507.787 1750.98 508.8 1749.17 509.76C1747.41 510.72 1745.41 511.467 1743.17 512C1740.98 512.533 1738.53 512.8 1735.81 512.8ZM1794.43 512.8C1792.03 512.8 1789.76 512.507 1787.63 511.92C1785.55 511.28 1783.63 510.4 1781.87 509.28C1780.11 508.107 1778.59 506.693 1777.31 505.04C1776.08 503.387 1775.15 501.627 1774.51 499.76L1776.27 501.12L1775.87 512H1772.03V452.8H1776.03V480.88L1774.59 482.32C1775.28 480.453 1776.24 478.72 1777.47 477.12C1778.7 475.467 1780.19 474.08 1781.95 472.96C1783.71 471.84 1785.66 470.987 1787.79 470.4C1789.92 469.76 1792.22 469.44 1794.67 469.44C1798.72 469.44 1802.38 470.373 1805.63 472.24C1808.88 474.107 1811.47 476.693 1813.39 480C1815.31 483.253 1816.27 486.987 1816.27 491.2C1816.27 495.307 1815.31 498.987 1813.39 502.24C1811.52 505.493 1808.94 508.08 1805.63 510C1802.38 511.867 1798.64 512.8 1794.43 512.8ZM1794.03 508.8C1797.6 508.8 1800.72 508.027 1803.39 506.48C1806.11 504.933 1808.24 502.827 1809.79 500.16C1811.34 497.493 1812.11 494.48 1812.11 491.12C1812.11 487.653 1811.31 484.613 1809.71 482C1808.16 479.333 1806.03 477.227 1803.31 475.68C1800.59 474.133 1797.52 473.36 1794.11 473.36C1790.43 473.36 1787.2 474.133 1784.43 475.68C1781.66 477.227 1779.5 479.333 1777.95 482C1776.4 484.613 1775.63 487.627 1775.63 491.04C1775.63 494.507 1776.43 497.573 1778.03 500.24C1779.63 502.907 1781.82 505.013 1784.59 506.56C1787.36 508.053 1790.51 508.8 1794.03 508.8ZM1877.49 512.8C1873.38 512.8 1869.7 511.867 1866.45 510C1863.25 508.08 1860.71 505.493 1858.85 502.24C1856.98 498.987 1856.05 495.28 1856.05 491.12C1856.05 486.907 1856.98 483.173 1858.85 479.92C1860.77 476.667 1863.35 474.107 1866.61 472.24C1869.91 470.373 1873.62 469.44 1877.73 469.44C1880.18 469.44 1882.45 469.76 1884.53 470.4C1886.66 470.987 1888.58 471.84 1890.29 472.96C1892.05 474.08 1893.57 475.467 1894.85 477.12C1896.13 478.72 1897.11 480.48 1897.81 482.4L1896.29 481.12V452.8H1900.29V512H1896.53L1896.13 500.8L1897.73 499.76C1897.09 501.68 1896.13 503.44 1894.85 505.04C1893.57 506.64 1892.05 508.027 1890.29 509.2C1888.53 510.373 1886.55 511.28 1884.37 511.92C1882.23 512.507 1879.94 512.8 1877.49 512.8ZM1878.21 508.72C1881.73 508.72 1884.87 507.973 1887.65 506.48C1890.42 504.933 1892.61 502.853 1894.21 500.24C1895.81 497.573 1896.61 494.507 1896.61 491.04C1896.61 487.68 1895.83 484.667 1894.29 482C1892.74 479.333 1890.58 477.253 1887.81 475.76C1885.03 474.267 1881.83 473.52 1878.21 473.52C1874.74 473.52 1871.65 474.267 1868.93 475.76C1866.26 477.253 1864.15 479.333 1862.61 482C1861.06 484.613 1860.29 487.627 1860.29 491.04C1860.29 494.4 1861.06 497.413 1862.61 500.08C1864.15 502.747 1866.26 504.853 1868.93 506.4C1871.65 507.947 1874.74 508.72 1878.21 508.72ZM1939.17 512.8C1934.58 512.8 1930.5 511.893 1926.93 510.08C1923.41 508.267 1920.66 505.733 1918.69 502.48C1916.72 499.227 1915.73 495.44 1915.73 491.12C1915.73 487.867 1916.29 484.933 1917.41 482.32C1918.58 479.707 1920.18 477.44 1922.21 475.52C1924.24 473.547 1926.64 472.053 1929.41 471.04C1932.18 469.973 1935.17 469.44 1938.37 469.44C1941.57 469.44 1944.48 469.92 1947.09 470.88C1949.7 471.787 1951.92 473.147 1953.73 474.96C1955.6 476.72 1957.01 478.827 1957.97 481.28C1958.93 483.733 1959.36 486.453 1959.25 489.44L1959.17 491.92H1918.93V488.24H1957.01L1955.33 489.36L1955.25 487.44C1955.25 485.307 1954.58 483.173 1953.25 481.04C1951.97 478.853 1950.08 477.04 1947.57 475.6C1945.06 474.16 1941.97 473.44 1938.29 473.44C1934.93 473.44 1931.86 474.08 1929.09 475.36C1926.32 476.587 1924.1 478.507 1922.45 481.12C1920.8 483.68 1919.97 486.933 1919.97 490.88C1919.97 494.507 1920.77 497.653 1922.37 500.32C1923.97 502.987 1926.24 505.067 1929.17 506.56C1932.16 508 1935.76 508.72 1939.97 508.72C1942.8 508.72 1945.41 508.373 1947.81 507.68C1950.21 506.933 1952.77 505.573 1955.49 503.6L1957.33 506.72C1955.94 507.787 1954.34 508.8 1952.53 509.76C1950.77 510.72 1948.77 511.467 1946.53 512C1944.34 512.533 1941.89 512.8 1939.17 512.8ZM1989.63 512.8C1985.41 512.8 1981.65 512.08 1978.35 510.64C1975.04 509.2 1972.45 507.387 1970.59 505.2L1973.63 502.4C1975.33 504.533 1977.57 506.16 1980.35 507.28C1983.12 508.347 1986.16 508.88 1989.47 508.88C1991.33 508.88 1993.07 508.72 1994.67 508.4C1996.32 508.08 1997.73 507.627 1998.91 507.04C2000.13 506.453 2001.09 505.68 2001.79 504.72C2002.48 503.707 2002.83 502.56 2002.83 501.28C2002.83 499.147 2001.63 497.387 1999.23 496C1998.05 495.413 1996.59 494.853 1994.83 494.32C1993.12 493.733 1991.09 493.2 1988.75 492.72C1985.55 491.92 1982.8 491.2 1980.51 490.56C1978.21 489.867 1976.4 488.987 1975.07 487.92C1974.05 487.067 1973.28 486.08 1972.75 484.96C1972.27 483.84 1972.03 482.587 1972.03 481.2C1972.03 479.493 1972.43 477.92 1973.23 476.48C1974.03 475.04 1975.17 473.787 1976.67 472.72C1978.21 471.653 1979.97 470.853 1981.95 470.32C1983.92 469.733 1986.13 469.44 1988.59 469.44C1990.77 469.44 1992.99 469.733 1995.23 470.32C1997.52 470.853 1999.65 471.627 2001.63 472.64C2003.65 473.653 2005.39 474.853 2006.83 476.24L2004.19 479.28C2002.91 478.107 2001.47 477.067 1999.87 476.16C1998.32 475.2 1996.59 474.453 1994.67 473.92C1992.8 473.387 1990.83 473.12 1988.75 473.12C1987.09 473.12 1985.49 473.307 1983.95 473.68C1982.45 474 1981.15 474.533 1980.03 475.28C1978.91 475.973 1978 476.8 1977.31 477.76C1976.61 478.72 1976.27 479.787 1976.27 480.96C1976.21 481.973 1976.4 482.827 1976.83 483.52C1977.25 484.16 1977.87 484.747 1978.67 485.28C1979.79 486.027 1981.25 486.667 1983.07 487.2C1984.88 487.68 1987.12 488.213 1989.79 488.8C1992.29 489.333 1994.53 489.867 1996.51 490.4C1998.48 490.933 2000.16 491.573 2001.55 492.32C2003.36 493.333 2004.72 494.533 2005.63 495.92C2006.59 497.307 2007.07 498.933 2007.07 500.8C2007.07 503.2 2006.32 505.307 2004.83 507.12C2003.39 508.88 2001.36 510.267 1998.75 511.28C1996.13 512.293 1993.09 512.8 1989.63 512.8ZM2025.1 512V470.4H2029.1V512H2025.1ZM2027.1 461.6C2025.93 461.6 2025.02 461.28 2024.38 460.64C2023.74 460 2023.42 459.12 2023.42 458C2023.42 456.933 2023.74 456.08 2024.38 455.44C2025.02 454.747 2025.93 454.4 2027.1 454.4C2028.28 454.4 2029.18 454.72 2029.82 455.36C2030.46 456 2030.78 456.88 2030.78 458C2030.78 459.067 2030.46 459.947 2029.82 460.64C2029.18 461.28 2028.28 461.6 2027.1 461.6ZM2069.88 530.4C2066.15 530.4 2062.87 529.867 2060.04 528.8C2057.27 527.787 2054.89 526.64 2052.92 525.36L2054.68 521.52C2055.85 522.373 2057.19 523.147 2058.68 523.84C2060.23 524.587 2061.96 525.2 2063.88 525.68C2065.8 526.16 2067.88 526.4 2070.12 526.4C2073.48 526.4 2076.41 525.733 2078.92 524.4C2081.43 523.12 2083.37 521.12 2084.76 518.4C2086.2 515.68 2086.92 512.24 2086.92 508.08V500.88L2088.12 499.92C2087.11 502.48 2085.64 504.72 2083.72 506.64C2081.8 508.56 2079.48 510.053 2076.76 511.12C2074.04 512.187 2071.05 512.72 2067.8 512.72C2063.69 512.72 2060.04 511.787 2056.84 509.92C2053.64 508.053 2051.11 505.493 2049.24 502.24C2047.37 498.987 2046.44 495.28 2046.44 491.12C2046.44 486.907 2047.4 483.173 2049.32 479.92C2051.24 476.667 2053.83 474.107 2057.08 472.24C2060.33 470.373 2064.01 469.44 2068.12 469.44C2069.88 469.44 2071.64 469.653 2073.4 470.08C2075.16 470.453 2076.79 470.987 2078.28 471.68C2079.83 472.373 2081.24 473.253 2082.52 474.32C2083.8 475.387 2084.92 476.613 2085.88 478C2086.84 479.333 2087.61 480.827 2088.2 482.48L2086.52 481.44L2086.92 470.4H2090.92V508.16C2090.92 511.947 2090.36 515.227 2089.24 518C2088.17 520.773 2086.68 523.067 2084.76 524.88C2082.84 526.693 2080.57 528.053 2077.96 528.96C2075.4 529.92 2072.71 530.4 2069.88 530.4ZM2068.68 508.72C2072.25 508.72 2075.4 507.973 2078.12 506.48C2080.89 504.933 2083.05 502.853 2084.6 500.24C2086.2 497.573 2087 494.533 2087 491.12C2087 487.653 2086.2 484.587 2084.6 481.92C2083.05 479.253 2080.89 477.173 2078.12 475.68C2075.4 474.187 2072.28 473.44 2068.76 473.44C2065.29 473.44 2062.2 474.213 2059.48 475.76C2056.76 477.253 2054.6 479.333 2053 482C2051.45 484.613 2050.68 487.627 2050.68 491.04C2050.68 494.4 2051.45 497.413 2053 500.08C2054.55 502.747 2056.65 504.853 2059.32 506.4C2062.04 507.947 2065.16 508.72 2068.68 508.72ZM2111.4 512V470.4H2115.24L2115.64 480.48L2114.84 480.4C2115.54 478.533 2116.71 476.773 2118.36 475.12C2120.07 473.413 2122.12 472.053 2124.52 471.04C2126.98 469.973 2129.59 469.44 2132.36 469.44C2135.78 469.44 2138.68 470.133 2141.08 471.52C2143.48 472.907 2145.27 474.933 2146.44 477.6C2147.67 480.213 2148.28 483.387 2148.28 487.12V512H2144.28V487.52C2144.28 484.427 2143.75 481.84 2142.68 479.76C2141.67 477.68 2140.2 476.08 2138.28 474.96C2136.36 473.84 2134.07 473.28 2131.4 473.28C2129.06 473.28 2126.92 473.707 2125 474.56C2123.08 475.36 2121.38 476.453 2119.88 477.84C2118.44 479.227 2117.32 480.773 2116.52 482.48C2115.78 484.133 2115.4 485.867 2115.4 487.68V512H2113.4C2113.3 512 2113.08 512 2112.76 512C2112.44 512 2111.99 512 2111.4 512Z" fill="#EFEFEF"/>
</g>
<defs>
<filter id="filter0_d_1_2" x="767.8" y="263" width="1094.1" height="152.5" filterUnits="userSpaceOnUse" color-interpolation-filters="sRGB">
<feFlood flood-opacity="0" result="BackgroundImageFix"/>
<feColorMatrix in="SourceAlpha" type="matrix" values="0 0 0 0 0 0 0 0 0 0 0 0 0 0 0 0 0 0 127 0" result="hardAlpha"/>
<feOffset/>
<feGaussianBlur stdDeviation="10"/>
<feComposite in2="hardAlpha" operator="out"/>
<feColorMatrix type="matrix" values="0 0 0 0 0 0 0 0 0 0 0 0 0 0 0 0 0 0 0.5 0"/>
<feBlend mode="normal" in2="BackgroundImageFix" result="effect1_dropShadow_1_2"/>
<feBlend mode="normal" in="SourceGraphic" in2="effect1_dropShadow_1_2" result="shape"/>
</filter>
<filter id="filter1_d_1_2" x="2421" y="555" width="200" height="200" filterUnits="userSpaceOnUse" color-interpolation-filters="sRGB">
<feFlood flood-opacity="0" result="BackgroundImageFix"/>
<feColorMatrix in="SourceAlpha" type="matrix" values="0 0 0 0 0 0 0 0 0 0 0 0 0 0 0 0 0 0 127 0" result="hardAlpha"/>
<feOffset/>
<feGaussianBlur stdDeviation="10"/>
<feComposite in2="hardAlpha" operator="out"/>
<feColorMatrix type="matrix" values="0 0 0 0 0 0 0 0 0 0 0 0 0 0 0 0 0 0 0.5 0"/>
<feBlend mode="normal" in2="BackgroundImageFix" result="effect1_dropShadow_1_2"/>
<feBlend mode="normal" in="SourceGraphic" in2="effect1_dropShadow_1_2" result="shape"/>
</filter>
<filter id="filter2_i_1_2" x="2458.94" y="623.8" width="122.671" height="77.472" filterUnits="userSpaceOnUse" color-interpolation-filters="sRGB">
<feFlood flood-opacity="0" result="BackgroundImageFix"/>
<feBlend mode="normal" in="SourceGraphic" in2="BackgroundImageFix" result="shape"/>
<feColorMatrix in="SourceAlpha" type="matrix" values="0 0 0 0 0 0 0 0 0 0 0 0 0 0 0 0 0 0 127 0" result="hardAlpha"/>
<feOffset/>
<feGaussianBlur stdDeviation="5"/>
<feComposite in2="hardAlpha" operator="arithmetic" k2="-1" k3="1"/>
<feColorMatrix type="matrix" values="0 0 0 0 0 0 0 0 0 0 0 0 0 0 0 0 0 0 0.5 0"/>
<feBlend mode="normal" in2="shape" result="effect1_innerShadow_1_2"/>
</filter>
<filter id="filter3_d_1_2" x="469.109" y="432.8" width="1699.17" height="117.6" filterUnits="userSpaceOnUse" color-interpolation-filters="sRGB">
<feFlood flood-opacity="0" result="BackgroundImageFix"/>
<feColorMatrix in="SourceAlpha" type="matrix" values="0 0 0 0 0 0 0 0 0 0 0 0 0 0 0 0 0 0 127 0" result="hardAlpha"/>
<feOffset/>
<feGaussianBlur stdDeviation="10"/>
<feComposite in2="hardAlpha" operator="out"/>
<feColorMatrix type="matrix" values="0 0 0 0 0 0 0 0 0 0 0 0 0 0 0 0 0 0 0.5 0"/>
<feBlend mode="normal" in2="BackgroundImageFix" result="effect1_dropShadow_1_2"/>
<feBlend mode="normal" in="SourceGraphic" in2="effect1_dropShadow_1_2" result="shape"/>
</filter>
</defs>
</svg>
